<?xml version="1.0" encoding="UTF-8" standalone="no"?>
<svg
   width="679.47266pt"
   height="289.73715pt"
   viewBox="0 0 679.47264 289.73714"
   version="1.1"
   id="svg59"
   sodipodi:docname="EPOS_LOGO_URL_RGB_VECTOR_NEGATIVE.svg"
   inkscape:version="1.1.1 (3bf5ae0d25, 2021-09-20)"
   xmlns:inkscape="http://www.inkscape.org/namespaces/inkscape"
   xmlns:sodipodi="http://sodipodi.sourceforge.net/DTD/sodipodi-0.dtd"
   xmlns="http://www.w3.org/2000/svg"
   xmlns:svg="http://www.w3.org/2000/svg">
  <defs
     id="defs63" />
  <sodipodi:namedview
     id="namedview61"
     pagecolor="#ffffff"
     bordercolor="#666666"
     borderopacity="1.0"
     inkscape:pageshadow="2"
     inkscape:pageopacity="0.0"
     inkscape:pagecheckerboard="0"
     inkscape:document-units="pt"
     showgrid="false"
     fit-margin-top="0"
     fit-margin-left="0"
     fit-margin-right="0"
     fit-margin-bottom="0"
     inkscape:zoom="0.54995126"
     inkscape:cx="432.76563"
     inkscape:cy="8.1825434"
     inkscape:window-width="1555"
     inkscape:window-height="1091"
     inkscape:window-x="362"
     inkscape:window-y="58"
     inkscape:window-maximized="0"
     inkscape:current-layer="svg59" />
  <path
     style="fill:#ffffff;fill-opacity:1;fill-rule:nonzero;stroke:none"
     d="m 251.76562,206.02232 c 0.44532,-0.35937 1.20704,-0.59766 2.28125,-0.71875 1.07813,-0.12109 3.01172,-0.17969 5.8125,-0.17969 2.82813,0 4.9336,0.0664 6.32422,0.19922 1.39453,0.13672 2.25782,0.35156 2.60547,0.65235 0.24219,0.21484 0.40625,0.48437 0.48438,0.8125 0.0781,0.32812 0.13672,0.97656 0.17968,1.94531 h 8.94922 c 0.0274,-0.84766 0.0391,-1.33203 0.0391,-1.46094 0,-2.41016 -0.26954,-4.23047 -0.81641,-5.47266 -0.54297,-1.24609 -1.48438,-2.17578 -2.81641,-2.8125 -1.01953,-0.46484 -2.39062,-0.78906 -4.11328,-0.96093 -1.72265,-0.17188 -4.47656,-0.26172 -8.26172,-0.26172 -7.57812,0 -12.61328,0.28125 -15.10937,0.82812 -2.4961,0.55469 -4.15235,1.76563 -4.97266,3.625 -0.37109,0.83203 -0.62109,2 -0.7539,3.50391 -0.12891,1.50391 -0.19141,3.95703 -0.19141,7.35547 0,3.48437 0.0625,5.89062 0.19141,7.22265 0.16015,1.65235 0.5039,2.94532 1.03515,3.89063 0.53125,0.94922 1.33594,1.70312 2.41016,2.25781 1.20312,0.6211 2.99219,1.03516 5.36719,1.25 2.375,0.21485 6.35546,0.32422 11.95312,0.32422 5.32031,0 9.0625,-0.25781 11.23047,-0.77344 2.16406,-0.51562 3.62109,-1.48828 4.36719,-2.91797 0.67187,-1.27343 1.01172,-3.03906 1.01172,-5.30078 0,-0.41406 -0.0312,-1.33593 -0.0977,-2.76953 h -8.94531 c -0.0274,1.82813 -0.3086,2.98828 -0.83985,3.48438 -0.40234,0.38672 -1.17187,0.63281 -2.3164,0.7539 -1.13672,0.10938 -3.42188,0.16797 -6.84766,0.16797 -2.78516,0 -4.72656,-0.0625 -5.82422,-0.19531 -1.09765,-0.12891 -1.89844,-0.38281 -2.40234,-0.76953 -0.52735,-0.40625 -0.89063,-1.0586 -1.07422,-1.96485 -0.1875,-0.91015 -0.28125,-2.47656 -0.28125,-4.69531 0,-2.21484 0.10547,-3.83203 0.3125,-4.85156 0.21094,-1.01172 0.57812,-1.73828 1.10937,-2.16797"
     id="path4" />
  <path
     style="fill:#ffffff;fill-opacity:1;fill-rule:nonzero;stroke:none"
     d="M 314.09766,216.17857 319.75,205.03404 h 1.78516 l 5.65625,11.14453 z m 18.75,11.39844 H 343 l -15.35938,-29.3711 H 313.75 l -15.56641,29.3711 h 10.21485 l 2.51953,-4.97266 h 19.41406 z m 0,0"
     id="path6" />
  <path
     style="fill:#ffffff;fill-opacity:1;fill-rule:nonzero;stroke:none"
     d="m 358.22656,205.6942 h 13.08203 v 21.89062 h 9.37891 V 205.6942 h 13.07812 v -7.48829 h -35.53906 z m 0,0"
     id="path8" />
  <path
     style="fill:#ffffff;fill-opacity:1;fill-rule:nonzero;stroke:none"
     d="m 462.60547,210.93248 v 5.85937 h 11.76172 v 0.81641 c 0,0.84375 -0.0937,1.47656 -0.26953,1.89844 -0.17579,0.42187 -0.48438,0.72265 -0.91016,0.91015 -0.53125,0.21094 -1.23438,0.34766 -2.10547,0.39453 -0.875,0.0547 -3.33984,0.0937 -7.40234,0.1211 -4.15235,-0.0586 -6.61719,-0.12891 -7.39453,-0.20313 -0.77735,-0.0781 -1.41407,-0.3125 -1.90235,-0.69922 -0.48437,-0.39843 -0.8164,-1.08593 -0.98437,-2.0664 -0.17578,-0.97657 -0.25782,-2.70313 -0.25782,-5.17188 0,-2.20312 0.082,-3.7539 0.25782,-4.66015 0.16797,-0.90625 0.5,-1.5586 0.98828,-1.95704 0.48437,-0.38671 1.39062,-0.65234 2.71484,-0.79687 1.32813,-0.14063 3.53906,-0.21484 6.63281,-0.21484 2.85157,0 5.02735,0.043 6.53125,0.1289 1.58985,0.082 2.63672,0.30469 3.14063,0.66016 0.26953,0.1914 0.44922,0.4375 0.53516,0.72656 0.082,0.28906 0.13671,0.84375 0.15234,1.65625 h 8.94141 c -0.0117,-2.03125 -0.13672,-3.625 -0.36329,-4.77734 -0.47265,-2.33203 -1.83203,-3.84766 -4.08593,-4.54297 -1.38672,-0.42969 -3.15625,-0.74219 -5.30469,-0.92578 -2.14844,-0.1836 -5.07813,-0.27735 -8.76953,-0.27735 -6.23438,0 -10.85938,0.26172 -13.86328,0.79297 -2.75,0.48828 -4.55078,1.86328 -5.39453,4.12891 -0.41797,1.07422 -0.69532,2.29687 -0.83594,3.66015 -0.14844,1.35547 -0.21875,3.37891 -0.21875,6.0625 0,3.9375 0.0859,6.57813 0.25781,7.91407 0.17188,1.42968 0.48047,2.58593 0.92578,3.45703 0.44141,0.875 1.07813,1.59375 1.91016,2.15234 1.21875,0.8125 2.87109,1.35938 4.96094,1.63281 2.09375,0.27344 5.66015,0.41016 10.70312,0.41016 3.97656,0 6.94141,-0.0547 8.88281,-0.16406 1.94141,-0.10156 3.66407,-0.3125 5.16797,-0.61328 3.49219,-0.71485 5.41406,-2.76563 5.75781,-6.15235 0.21094,-2.08984 0.32032,-5.21484 0.32032,-9.36328 0,-0.0547 -0.008,-0.32031 -0.0312,-0.79687 z m 0,0"
     id="path10" />
  <path
     style="fill:#ffffff;fill-opacity:1;fill-rule:nonzero;stroke:none"
     d="m 548.50781,208.90904 c -0.89062,-0.94531 -2.01953,-1.62891 -3.38672,-2.05078 -1.375,-0.42578 -3.13281,-0.63672 -5.28515,-0.63672 -2.56641,0 -4.55078,0.33984 -5.94532,1.02344 -1.40234,0.68359 -2.41406,1.79297 -3.05078,3.34375 -0.84765,-1.55078 -2.00781,-2.66016 -3.48047,-3.34375 -1.47656,-0.6836 -3.46875,-1.02344 -5.97656,-1.02344 -4.51562,0 -7.32812,1.21875 -8.44531,3.65625 h -0.41797 v -3.12891 h -7.30859 v 20.82813 h 7.79297 v -8.58985 c 0,-1.72265 0.082,-2.97265 0.25,-3.76562 0.16015,-0.78906 0.46875,-1.41406 0.91015,-1.87109 0.84375,-0.84766 2.4336,-1.26954 4.76563,-1.26954 2.15625,0 3.59765,0.38672 4.3164,1.16016 0.35157,0.375 0.58203,0.82813 0.67578,1.36328 0.0937,0.54297 0.13672,1.625 0.13672,3.24219 v 9.73047 h 7.79688 v -8.58985 c 0,-1.6914 0.082,-2.92578 0.24609,-3.69921 0.16406,-0.77344 0.47266,-1.40625 0.91406,-1.89454 0.80079,-0.875 2.34375,-1.3125 4.625,-1.3125 2.16407,0 3.625,0.37891 4.38282,1.14063 0.35937,0.35937 0.59375,0.83984 0.70703,1.44141 0.12109,0.60156 0.17969,1.66406 0.17969,3.18359 v 9.73047 h 7.79296 v -9.73047 c 0,-2.69141 -0.14062,-4.62109 -0.43359,-5.78906 -0.28516,-1.16797 -0.875,-2.21485 -1.76172,-3.14844"
     id="path12" />
  <path
     style="fill:#ffffff;fill-opacity:1;fill-rule:nonzero;stroke:none"
     d="m 581.17578,220.36216 c -0.26953,-0.61328 -0.40234,-1.65234 -0.40234,-3.12109 0,-1.36328 0.10937,-2.37891 0.33203,-3.02734 0.22656,-0.64453 0.6289,-1.125 1.21484,-1.44141 0.91406,-0.49219 2.71485,-0.73828 5.38672,-0.73828 2.35156,0 4.03906,0.21094 5.06641,0.62891 0.6875,0.27343 1.16015,0.71484 1.41015,1.3164 0.25,0.60547 0.375,1.59766 0.375,2.98047 0,1.32422 -0.0937,2.32031 -0.27734,2.98438 -0.19141,0.66015 -0.51953,1.14453 -0.99219,1.44531 -0.89844,0.57422 -2.71875,0.86328 -5.44922,0.86328 -2.36328,0 -4.07422,-0.19531 -5.1289,-0.58203 -0.76172,-0.26172 -1.27735,-0.69922 -1.53516,-1.3086 m 8.88281,7.7461 c 3.64063,0 6.32032,-0.33203 8.03907,-0.98828 1.71875,-0.66016 2.8789,-1.80469 3.48437,-3.44141 0.29688,-0.79297 0.50391,-1.64844 0.60938,-2.57422 0.10937,-0.92578 0.16406,-2.26562 0.16406,-4.01172 0,-2.69922 -0.1875,-4.67968 -0.5586,-5.9414 -0.375,-1.26563 -1.07031,-2.27344 -2.08984,-3.03907 -0.89844,-0.68359 -2.125,-1.17968 -3.67969,-1.48437 -1.55859,-0.30078 -3.61718,-0.44922 -6.17968,-0.44922 -2.59375,0 -4.5,0.23438 -5.71875,0.69922 -1.22266,0.46875 -2.21875,1.35156 -3.01172,2.64844 h -0.34375 v -11.32032 h -7.79297 v 29.37891 h 7.35156 v -2.73437 h 0.42188 c 0.57031,0.97656 1.16406,1.64453 1.78125,2.01562 1.375,0.83203 3.88671,1.24219 7.52343,1.24219"
     id="path14" />
  <path
     style="fill:#ffffff;fill-opacity:1;fill-rule:nonzero;stroke:none"
     d="M 654.15234,208.73326 H 633.9375 v -10.52735 h -9.37891 v 29.37891 h 9.37891 v -10.61719 h 20.21484 v 10.61719 h 9.37891 v -29.37891 h -9.37891 z m 0,0"
     id="path16" />
  <path
     style="fill:#ffffff;fill-opacity:1;fill-rule:nonzero;stroke:none"
     d="m 40.23047,115.16685 c 0.29687,-7.52344 2.63281,-12.48437 7.00781,-14.86719 4.375,-2.386708 13.34766,-3.582028 26.91797,-3.582028 15.125,0 24.43359,1.79297 27.91797,5.371098 1.18359,1.26562 1.98437,2.69922 2.39062,4.30078 0.40625,1.60156 0.6836,4.53125 0.83594,8.77734 z m 71.30469,-41.386718 c -7.33985,-1.25781 -19.97657,-1.88672 -37.91797,-1.88672 -20.31641,0 -35.28906,1.10938 -44.92969,3.32813 -11.265625,2.59375 -19.046875,8.1875 -23.351562,16.78125 C 3.261719,96.147322 1.855469,100.79185 1.113281,105.9442 0.371094,111.08873 0,118.77232 0,128.99107 c 0,13.62891 0.964844,23.71875 2.894531,30.27344 1.925781,6.55859 5.484375,11.79687 10.671875,15.71875 4.894532,3.70312 11.527344,6.3125 19.906254,7.83203 8.375,1.51953 20.38671,2.28125 36.02734,2.28125 18.97656,0 33.21484,-0.87109 42.70312,-2.60938 9.48829,-1.73437 16.83204,-4.85937 22.01954,-9.36328 6,-5.09765 9.5625,-13.48047 10.67578,-25.15625 h -40.15625 c -0.52344,3.2461 -1.44922,5.52735 -2.78125,6.85547 -1.63282,1.6211 -4.69141,2.78516 -9.17578,3.48438 -4.48829,0.69922 -11.21485,1.04687 -20.1875,1.04687 -14.08985,0 -23.13672,-1.48047 -27.14063,-4.4414 -2.07422,-1.55469 -3.46484,-3.51563 -4.16797,-5.88282 -0.70703,-2.36718 -1.05859,-6.28906 -1.05859,-11.76953 H 145.5625 c 0.14844,-5.55859 0.22266,-9.1875 0.22266,-10.89062 0,-17.78907 -2.44922,-30.445318 -7.33985,-37.968748 -4.89062,-7.52344 -13.86328,-12.39453 -26.91015,-14.6211"
     id="path18" />
  <path
     style="fill:#ffffff;fill-opacity:1;fill-rule:nonzero;stroke:none"
     d="m 216.625,143.61998 c -1.10938,-3.14844 -1.66406,-7.8086 -1.66406,-13.96094 0,-11.49219 1.96093,-18.94531 5.88672,-22.35547 3.92187,-3.41406 14.32421,-5.11719 31.20312,-5.11719 12.88281,0.0742 21.62109,1.29688 26.21094,3.67188 3.10937,1.6289 5.22265,3.89062 6.33203,6.78515 1.10937,2.89063 1.66406,7.63672 1.66406,14.23829 0,7.1914 -0.46484,12.47656 -1.38672,15.85156 -0.92578,3.37109 -2.64843,5.91015 -5.16406,7.61719 -4.44141,2.96484 -14.06641,4.45312 -28.87891,4.45312 -14.28515,0 -23.76562,-1.375 -28.42968,-4.12109 -2.73828,-1.55469 -4.66407,-3.91407 -5.77344,-7.0625 m 15.67578,37.98047 c 6.375,2.33203 16.41406,3.49609 30.12891,3.49609 19.04687,0 32.87109,-1.5 41.46875,-4.5 8.59375,-3 14.5625,-8.42578 17.89843,-16.27734 1.77735,-4.21485 3.01954,-8.88672 3.72266,-13.9961 0.70703,-5.11328 1.05469,-12.22265 1.05469,-21.33203 0,-13.62891 -0.77344,-23.60547 -2.33594,-29.937498 -1.55078,-6.33203 -4.48047,-11.45703 -8.77734,-15.38672 -4.59766,-4.21875 -10.82422,-7.23437 -18.67969,-9.05078 -7.85156,-1.8125 -18.71094,-2.72656 -32.57031,-2.72656 -15.48828,0 -26.73438,1.22265 -33.73828,3.66406 -7.00391,2.44531 -12.21094,6.99219 -15.6211,13.64844 h -2.16797 V 74.623882 H 174.64062 V 227.22935 h 40.32032 v -58.76562 h 1.89062 c 3.92578,6.43359 9.07422,10.80859 15.44922,13.13672"
     id="path20" />
  <path
     style="fill:#ffffff;fill-opacity:1;fill-rule:nonzero;stroke:none"
     d="m 458.28516,150.01841 c -4.25782,3.1875 -13.99219,4.78516 -29.22657,4.78516 -13.30468,0 -22.51172,-1.19141 -27.61718,-3.5625 -3.32422,-1.55469 -5.57813,-3.85937 -6.75782,-6.90234 -1.1875,-3.03516 -1.77734,-8.07813 -1.77734,-15.125 0,-7.11328 0.70312,-12.49219 2.10937,-16.125 1.40235,-3.63282 3.80469,-6.22657 7.20313,-7.78907 4.66016,-2.07812 13.64062,-3.11718 26.94922,-3.11718 12.42187,0 21.18359,1.11718 26.28515,3.34375 3.47657,1.47656 5.87891,3.85547 7.20704,7.11718 1.33203,3.26172 1.99609,8.45313 1.99609,15.57032 0,11.34765 -2.12109,18.61718 -6.37109,21.80468 m 42.80078,12.41016 c 1.48047,-3.99609 2.5039,-8.49219 3.05859,-13.49219 0.55469,-5 0.83203,-12.5 0.83203,-22.49609 0,-13.48047 -0.96094,-23.33203 -2.89062,-29.554688 -1.92578,-6.21875 -5.5586,-11.25781 -10.89063,-15.10547 -5.11328,-3.70312 -12.20703,-6.27734 -21.28515,-7.72265 -9.07813,-1.44141 -22.76954,-2.16797 -41.07422,-2.16797 -23.9336,0.0781 -40.75782,1.48437 -50.46485,4.22656 -9.70703,2.73828 -16.59765,8.03125 -20.66797,15.88672 -2.0039,3.84766 -3.35937,8.085938 -4.05859,12.718748 -0.70703,4.62891 -1.05859,11.38672 -1.05859,20.27344 0,15.625 0.83203,26.73437 2.5039,33.32422 1.66407,6.59375 4.98438,11.92968 9.94922,15.99609 5.1836,4.30078 12.11719,7.16797 20.78516,8.61328 8.66797,1.44531 23.04297,2.16797 43.12109,2.16797 22.67969,0 38.90625,-1.14844 48.6836,-3.44531 11.78515,-2.74219 19.60937,-9.14844 23.45703,-19.22266"
     id="path22" />
  <path
     style="fill:#ffffff;fill-opacity:1;fill-rule:nonzero;stroke:none"
     d="m 669.23828,121.3192 c -6.75391,-5.04688 -17.69922,-7.60938 -32.83984,-7.67969 -31.61328,-0.22266 -49.9375,-0.51953 -54.98047,-0.89063 -6.45703,-0.44531 -9.6836,-2.85937 -9.6836,-7.23437 0,-3.34375 2.33204,-5.640628 7.01172,-6.902348 4.67188,-1.26171 13.3125,-1.89453 25.92188,-1.89453 13.57031,0 22.02734,1.0625 25.36328,3.19141 1.11328,0.757808 2.03906,2.507808 2.78125,5.238278 h 41.04297 c -0.51953,-6.527338 -1.39453,-11.453118 -2.61719,-14.792968 -1.21875,-3.33594 -3.24219,-6.1914 -6.0625,-8.5625 -4.60156,-3.85547 -11.05469,-6.47265 -19.36328,-7.84375 -8.30469,-1.37109 -21.62109,-2.05859 -39.94922,-2.05859 -29.08594,0 -48.03906,1.82031 -56.86719,5.45312 -11.71875,4.82032 -17.58203,15.16407 -17.58203,31.031248 0,8.3086 1.66797,14.91016 5.00781,19.80469 4.45313,6.51953 12.98829,10.64063 25.60938,12.34375 4.53125,0.66406 16.51953,0.99609 35.96484,0.99609 20.83985,0.22266 32.30078,0.63282 34.38282,1.23047 4.51953,1.26563 6.77734,3.75782 6.77734,7.47657 0,3.86718 -2.35156,6.50781 -7.0625,7.92578 -4.71094,1.40625 -13.58594,2.11328 -26.63672,2.11328 -12.60937,0 -21.28125,-0.85547 -26.03125,-2.56641 -4.75,-1.71875 -7.30859,-4.88281 -7.67578,-9.5039 h -41.03906 c 0.22265,11.67187 3.37109,20.23828 9.45703,25.70703 4.89453,4.43359 11.60937,7.40234 20.13672,8.92187 8.53125,1.51563 22.6289,2.27344 42.28906,2.27344 30.70312,0 50.80859,-2.19141 60.30469,-6.57031 5.71093,-2.51953 9.90234,-6.32813 12.57031,-11.40625 2.66797,-5.08594 4.00391,-11.70703 4.00391,-19.86719 0,-12.31641 -3.41016,-20.96484 -10.23438,-25.93359"
     id="path24" />
  <path
     style="fill:#ffffff;fill-opacity:1;fill-rule:nonzero;stroke:none"
     d="m 203.50781,275.43248 -5.51953,-14.59766 h -7.22656 l -5.41016,14.82813 -4.67969,-14.82813 h -8.0664 l 7.55859,20.41016 h 10.17969 l 4.10156,-12.00391 4.02735,12.00391 h 10.34375 l 7.60546,-20.41016 h -8.15234 z m 0,0"
     id="path26" />
  <path
     style="fill:#ffffff;fill-opacity:1;fill-rule:nonzero;stroke:none"
     d="m 249.69922,275.43248 -5.51953,-14.59766 h -7.22657 l -5.41406,14.82813 -4.67578,-14.82813 h -8.07031 l 7.5625,20.41016 h 10.17969 l 4.10546,-12.00391 4.01954,12.00391 h 10.34375 l 7.60546,-20.41016 h -8.14843 z m 0,0"
     id="path28" />
  <path
     style="fill:#ffffff;fill-opacity:1;fill-rule:nonzero;stroke:none"
     d="m 295.88672,275.43248 -5.51953,-14.59766 h -7.22657 l -5.41406,14.82813 -4.67578,-14.82813 h -8.07031 l 7.5625,20.41016 h 10.17578 l 4.10937,-12.00391 4.02344,12.00391 h 10.34375 l 7.60547,-20.41016 h -8.15234 z m 0,0"
     id="path30" />
  <path
     style="fill:#ffffff;fill-opacity:1;fill-rule:nonzero;stroke:none"
     d="m 312.07422,281.24498 h 9.21094 v -7.64063 h -9.21094 z m 0,0"
     id="path32" />
  <path
     style="fill:#ffffff;fill-opacity:1;fill-rule:nonzero;stroke:none"
     d="m 335.74609,268.52232 c 0.0547,-1.41797 0.5,-2.35156 1.32813,-2.80469 0.82812,-0.44531 2.52734,-0.67187 5.09765,-0.67187 2.86719,0 4.625,0.33594 5.29297,1.01172 0.21875,0.23828 0.375,0.50781 0.44532,0.8125 0.0781,0.30078 0.1289,0.85156 0.16015,1.65234 z m 13.50782,-7.85937 c -1.39454,-0.23829 -3.78907,-0.35547 -7.1875,-0.35547 -3.84766,0 -6.6875,0.21093 -8.50782,0.63281 -2.13672,0.49219 -3.61328,1.54687 -4.42968,3.17578 -0.39063,0.79297 -0.66016,1.67188 -0.79297,2.64453 -0.14844,0.97656 -0.21485,2.4375 -0.21485,4.375 0,2.58203 0.1836,4.5 0.55078,5.74219 0.36329,1.23828 1.03516,2.23437 2.01563,2.98047 0.92969,0.69922 2.1875,1.19531 3.77344,1.48047 1.58593,0.28906 3.86718,0.4375 6.82812,0.4375 3.59375,0 6.28906,-0.16797 8.08985,-0.5 1.79296,-0.33203 3.18359,-0.92188 4.17187,-1.77735 1.13281,-0.97265 1.80859,-2.5625 2.01563,-4.78125 h -7.59766 c -0.10156,0.61719 -0.27734,1.05078 -0.53125,1.30469 -0.30469,0.30859 -0.89063,0.52734 -1.73828,0.66406 -0.84766,0.13282 -2.1211,0.20313 -3.82031,0.20313 -2.66797,0 -4.38282,-0.28516 -5.14454,-0.84375 -0.39062,-0.29688 -0.65625,-0.67188 -0.78906,-1.11719 -0.13281,-0.44922 -0.19922,-1.19531 -0.19922,-2.23828 h 19.95313 c 0.0234,-1.05078 0.0391,-1.73828 0.0391,-2.05859 0,-3.3711 -0.46094,-5.76954 -1.39453,-7.19532 -0.92188,-1.42578 -2.625,-2.35156 -5.08984,-2.77343"
     id="path34" />
  <path
     style="fill:#ffffff;fill-opacity:1;fill-rule:nonzero;stroke:none"
     d="m 382.72656,273.73326 c -0.17578,0.64453 -0.5,1.12109 -0.97656,1.44531 -0.84766,0.5625 -2.67578,0.84375 -5.47656,0.84375 -2.71875,0 -4.51172,-0.25781 -5.39844,-0.77734 -0.52344,-0.29688 -0.88281,-0.74219 -1.09375,-1.33985 -0.21094,-0.59765 -0.32031,-1.47656 -0.32031,-2.64453 0,-2.17578 0.375,-3.58594 1.125,-4.23047 0.73828,-0.65234 2.71093,-0.97265 5.91406,-0.97265 2.44141,0.0156 4.09766,0.24609 4.97266,0.69531 0.58984,0.3125 0.98828,0.73828 1.19531,1.28906 0.21484,0.54297 0.32031,1.44141 0.32031,2.69141 0,1.36328 -0.0859,2.36328 -0.26172,3 m 5.78516,-11.19531 c -0.875,-0.79688 -2.05078,-1.36719 -3.54297,-1.71485 -1.48828,-0.34375 -3.54688,-0.51562 -6.16797,-0.51562 -2.9375,0 -5.06641,0.23437 -6.39844,0.69531 -1.32812,0.46484 -2.3125,1.32422 -2.96093,2.58984 h -0.42188 v -2.75781 h -7.18359 v 28.90234 h 7.625 v -11.12109 h 0.36718 c 0.73829,1.22266 1.71485,2.05078 2.92188,2.49609 1.21094,0.44141 3.11328,0.66407 5.71094,0.66407 3.60547,0 6.22656,-0.28907 7.85547,-0.85547 1.6289,-0.57031 2.76171,-1.59766 3.39843,-3.08594 0.33203,-0.80078 0.56641,-1.68359 0.69922,-2.65625 0.12891,-0.96875 0.19922,-2.31641 0.19922,-4.04297 0,-2.58594 -0.14062,-4.47656 -0.44141,-5.67969 -0.29296,-1.19921 -0.84765,-2.17187 -1.66015,-2.91796"
     id="path36" />
  <path
     style="fill:#ffffff;fill-opacity:1;fill-rule:nonzero;stroke:none"
     d="m 416.21094,275.11998 c -0.80469,0.59765 -2.65625,0.90234 -5.55078,0.90234 -2.52735,0 -4.27735,-0.22656 -5.24219,-0.67187 -0.63672,-0.29688 -1.0625,-0.73047 -1.28516,-1.3086 -0.23047,-0.57812 -0.33984,-1.53125 -0.33984,-2.86328 0,-1.35156 0.13672,-2.36719 0.40234,-3.05469 0.26953,-0.6875 0.72266,-1.18359 1.36719,-1.47656 0.88281,-0.39062 2.58984,-0.58984 5.11719,-0.58984 2.36328,0 4.02343,0.21093 4.99609,0.63281 0.66016,0.28125 1.11328,0.73047 1.375,1.34766 0.24609,0.62109 0.37109,1.60156 0.37109,2.94921 0,2.15235 -0.40625,3.52735 -1.21093,4.13282 m 6.22656,-12.9375 c -0.96875,-0.70313 -2.31641,-1.1875 -4.03516,-1.46485 -1.71875,-0.27343 -4.3125,-0.41015 -7.78515,-0.41015 -4.53516,0.0117 -7.72266,0.28125 -9.5625,0.80468 -1.84375,0.51172 -3.14453,1.51954 -3.91407,3.00391 -0.38281,0.73828 -0.63671,1.54297 -0.77343,2.41406 -0.13672,0.87891 -0.19922,2.16016 -0.19922,3.84375 0,2.96875 0.15625,5.07422 0.47265,6.32422 0.32032,1.2461 0.94141,2.26172 1.88672,3.03125 0.98047,0.81641 2.29688,1.36328 3.94141,1.63672 1.64453,0.27344 4.36328,0.41016 8.17187,0.41016 4.29688,0 7.375,-0.21875 9.22657,-0.66016 2.23047,-0.51562 3.71484,-1.73047 4.44922,-3.64062 0.27343,-0.75782 0.47265,-1.61329 0.57812,-2.5586 0.10156,-0.94922 0.15625,-2.37109 0.15625,-4.26562 0,-2.55469 -0.18359,-4.42578 -0.54687,-5.60547 -0.36329,-1.17969 -1.05469,-2.13281 -2.06641,-2.86328"
     id="path38" />
  <path
     style="fill:#ffffff;fill-opacity:1;fill-rule:nonzero;stroke:none"
     d="m 456.74609,269.70201 c -1.27734,-0.95703 -3.35156,-1.4375 -6.21875,-1.45313 -5.98047,-0.043 -9.44922,-0.10156 -10.41015,-0.17187 -1.21485,-0.082 -1.82813,-0.53516 -1.82813,-1.36719 0,-0.63281 0.44531,-1.06641 1.32422,-1.30859 0.89063,-0.23828 2.52344,-0.35547 4.91797,-0.35547 2.57031,0 4.16797,0.19922 4.79687,0.59375 0.21094,0.13672 0.38672,0.46484 0.52735,0.96484 h 7.77344 c -0.0977,-1.23437 -0.26172,-2.16797 -0.4961,-2.80078 -0.23437,-0.63281 -0.61328,-1.17187 -1.14844,-1.62109 -0.86718,-0.73047 -2.08984,-1.22657 -3.66015,-1.48438 -1.57813,-0.26172 -4.09375,-0.39062 -7.57031,-0.39062 -5.50391,0 -9.08594,0.34375 -10.75782,1.03125 -2.21875,0.91797 -3.32812,2.87109 -3.32812,5.875 0,1.57422 0.3164,2.82422 0.94531,3.7539 0.84375,1.23438 2.45703,2.01953 4.84766,2.33594 0.85547,0.12891 3.12109,0.19141 6.80468,0.19141 3.94532,0.0391 6.11329,0.11718 6.50391,0.23047 0.85938,0.24218 1.28906,0.71093 1.28906,1.41015 0,0.73047 -0.44531,1.23047 -1.33593,1.5 -0.89454,0.26563 -2.58204,0.39844 -5.04688,0.39844 -2.39453,0 -4.03125,-0.16406 -4.92969,-0.48438 -0.90234,-0.32421 -1.38672,-0.92187 -1.45703,-1.78906 h -7.77344 c 0.043,2.21485 0.64063,3.84766 1.78907,4.88672 0.93359,0.83984 2.20312,1.40625 3.8125,1.69531 1.62109,0.28907 4.28125,0.4336 8.01172,0.4336 5.8125,0 9.61328,-0.42188 11.41406,-1.2461 1.08203,-0.47656 1.87109,-1.19922 2.38281,-2.16015 0.50391,-0.96094 0.75391,-2.21094 0.75391,-3.75782 0,-2.33203 -0.64063,-3.96875 -1.9336,-4.91015"
     id="path40" />
  <path
     style="fill:#ffffff;fill-opacity:1;fill-rule:nonzero;stroke:none"
     d="m 463.01172,273.80748 h 18.20703 v -5.83203 h -18.14453 z m 0,0"
     id="path42" />
  <path
     style="fill:#ffffff;fill-opacity:1;fill-rule:nonzero;stroke:none"
     d="m 494.79687,266.69029 c 0.89454,-0.42188 2.47657,-0.63281 4.73829,-0.63281 2.23046,0 3.80468,0.22265 4.70703,0.66406 0.90625,0.4375 1.42187,1.24609 1.55078,2.41406 h 7.76562 c -0.0664,-1.91015 -0.26562,-3.34765 -0.59375,-4.30859 -0.33203,-0.96094 -0.90234,-1.77344 -1.71484,-2.4336 -0.97266,-0.77343 -2.31641,-1.3125 -4.03516,-1.625 -1.72265,-0.30859 -4.27343,-0.46093 -7.66015,-0.46093 -3.45313,0 -5.9961,0.15234 -7.62891,0.4414 -1.625,0.29688 -2.93359,0.83594 -3.91406,1.6211 -0.90235,0.73437 -1.52344,1.72265 -1.875,2.97265 -0.35547,1.25 -0.52735,3.10157 -0.52735,5.56641 0,2.69531 0.19141,4.6875 0.56641,5.98828 0.38281,1.30469 1.0625,2.30078 2.04688,3 1.02343,0.71875 2.32031,1.20703 3.88671,1.47656 1.5625,0.26563 3.92188,0.40235 7.06641,0.40235 4.00781,0 6.83203,-0.16797 8.49609,-0.5 1.65235,-0.33203 2.96875,-0.99219 3.95313,-1.98828 0.66797,-0.67969 1.12891,-1.45704 1.40234,-2.35157 0.27344,-0.88672 0.44532,-2.18359 0.51563,-3.88281 h -7.76953 c -0.17188,1.16797 -0.67188,1.94922 -1.50782,2.35938 -0.83984,0.40625 -2.3789,0.60937 -4.625,0.60937 -2.16406,0 -3.71875,-0.21094 -4.67968,-0.63281 -0.64453,-0.28125 -1.09375,-0.72656 -1.34375,-1.34766 -0.25782,-0.61719 -0.38282,-1.57812 -0.38282,-2.88672 0,-1.32812 0.1211,-2.33593 0.35938,-3.02343 0.23828,-0.67969 0.63672,-1.16016 1.20312,-1.44141"
     id="path44" />
  <path
     style="fill:#ffffff;fill-opacity:1;fill-rule:nonzero;stroke:none"
     d="m 537.26172,276.39732 c -0.96094,0.32422 -2.76953,0.49219 -5.4375,0.49219 -2.05469,0 -3.44531,-0.15625 -4.17969,-0.44531 -0.71875,-0.29297 -1.08594,-0.85547 -1.08594,-1.6875 0,-0.7461 0.3711,-1.29688 1.10938,-1.66016 0.61719,-0.3125 2.21484,-0.46484 4.78515,-0.46484 2.94922,0.0273 4.61329,0.11328 4.98829,0.25 0.83203,0.3125 1.25,0.87109 1.25,1.6875 0,0.89843 -0.48438,1.51171 -1.42969,1.82812 m 7.45312,-14.07031 c -0.85937,-0.85156 -1.89843,-1.40625 -3.12109,-1.66406 -1.21875,-0.25 -3.50781,-0.37891 -6.86328,-0.37891 -4.56641,0 -7.80469,0.23437 -9.72656,0.69531 -1.91407,0.46485 -3.32813,1.34766 -4.24219,2.66016 -0.57422,0.80859 -0.91406,2.00781 -1.01172,3.59765 h 7.60547 c 0.1289,-0.9375 0.51172,-1.51953 1.16015,-1.72656 0.64454,-0.21094 2.33594,-0.3125 5.07813,-0.3125 2.3125,0 3.76562,0.19922 4.35937,0.60547 0.58594,0.41016 0.88282,1.41016 0.88282,3.01563 v 1.07421 h -0.33203 c -0.59375,-0.66406 -1.26563,-1.09375 -2.01954,-1.29687 -0.75,-0.20313 -2.0039,-0.30078 -3.76171,-0.30078 -4.06641,0 -6.85938,0.125 -8.37891,0.375 -1.51172,0.2539 -2.74219,0.79297 -3.66797,1.62109 -1.16406,1.05078 -1.74609,2.76563 -1.74609,5.14063 0,2.13281 0.48828,3.67187 1.47656,4.61328 0.67578,0.63281 1.56641,1.07812 2.67187,1.33984 1.11329,0.25781 2.69141,0.39063 4.74219,0.39063 2.53516,0 4.39453,-0.0547 5.5586,-0.16016 1.16406,-0.10937 2.07031,-0.30078 2.71484,-0.58203 1.22266,-0.53125 2.11328,-1.38672 2.67969,-2.56641 h 0.35156 v 2.78125 h 7.33594 v -12.28125 c 0,-1.85547 -0.125,-3.2539 -0.36328,-4.20312 -0.25,-0.94922 -0.71094,-1.75781 -1.38282,-2.4375"
     id="path46" />
  <path
     style="fill:#ffffff;fill-opacity:1;fill-rule:nonzero;stroke:none"
     d="m 568.95312,274.49107 c -0.0273,0.26563 -0.11328,0.52734 -0.2539,0.79297 -0.35156,0.67578 -1.26172,1.01172 -2.73438,1.01172 -1.42187,0 -2.32031,-0.34766 -2.69531,-1.05078 -0.23437,-0.41016 -0.33984,-1.41407 -0.33984,-3.01563 v -5.9414 H 575 v -5.45704 h -12.07031 v -4.6914 h -7.62891 v 4.6914 h -4.02344 v 5.45704 h 4.02344 v 5.9414 c 0,1.78516 0.0156,2.87891 0.0469,3.28906 0.0547,1.10547 0.20312,1.97657 0.4375,2.60938 0.23828,0.63281 0.63281,1.21875 1.17968,1.74609 0.75,0.73438 1.71094,1.23047 2.89844,1.5 1.18359,0.26563 3,0.40235 5.44531,0.40235 2.63672,0 4.62891,-0.19532 5.97657,-0.58203 1.33593,-0.38672 2.38671,-1.0625 3.14453,-2.03125 0.58984,-0.7461 0.98828,-1.55469 1.1875,-2.42188 0.21093,-0.87109 0.32422,-2.28906 0.35156,-4.23437 h -6.97266 c 0,1.0664 -0.0156,1.72656 -0.043,1.98437"
     id="path48" />
  <path
     style="fill:#ffffff;fill-opacity:1;fill-rule:nonzero;stroke:none"
     d="m 581.94531,281.24498 h 9.20703 v -7.64063 h -9.20703 z m 0,0"
     id="path50" />
  <path
     style="fill:#ffffff;fill-opacity:1;fill-rule:nonzero;stroke:none"
     d="m 618.84766,273.78795 c -0.1836,0.61718 -0.51563,1.0664 -0.98047,1.34765 -0.94141,0.58985 -2.82422,0.88672 -5.66407,0.88672 -2.28906,0 -3.89062,-0.17969 -4.80078,-0.54687 -0.6914,-0.26563 -1.16015,-0.72657 -1.41406,-1.37891 -0.25781,-0.65625 -0.375,-1.74609 -0.375,-3.27344 0,-2.02344 0.42578,-3.32422 1.26953,-3.90234 0.85156,-0.57422 2.77735,-0.86328 5.78516,-0.86328 2.23437,0 3.8164,0.19922 4.74219,0.58984 0.64453,0.26563 1.09375,0.72656 1.34765,1.37109 0.25,0.64454 0.375,1.66407 0.375,3.05469 0,1.19141 -0.0937,2.09766 -0.28515,2.71485 m 0.24218,-10.21094 h -0.30859 c -0.73047,-1.29688 -1.68359,-2.16406 -2.83594,-2.60156 -1.16015,-0.44922 -3.08203,-0.66797 -5.76172,-0.66797 -3.07812,0 -5.35156,0.18359 -6.82812,0.54687 -2.00781,0.49219 -3.41406,1.4961 -4.21485,3.01172 -0.42187,0.81641 -0.71484,1.75781 -0.89453,2.82422 -0.16797,1.07031 -0.25781,2.48047 -0.25781,4.23437 0,2.52735 0.15625,4.41797 0.46875,5.66797 0.32031,1.2461 0.89844,2.25391 1.74219,3.01172 0.86719,0.80078 2.04687,1.36328 3.53515,1.6836 1.49219,0.32421 3.61719,0.48828 6.36329,0.48828 3.42578,0 5.83984,-0.42188 7.24609,-1.2461 0.64844,-0.3789 1.23828,-1.03515 1.76953,-1.95703 h 0.42188 v 2.67188 h 7.18359 v -28.75391 h -7.62891 z m 0,0"
     id="path52" />
  <path
     style="fill:#ffffff;fill-opacity:1;fill-rule:nonzero;stroke:none"
     d="m 640.46484,268.52232 c 0.0586,-1.41797 0.5,-2.35156 1.33203,-2.80469 0.82813,-0.44531 2.52735,-0.67187 5.09375,-0.67187 2.86719,0 4.62891,0.33594 5.28907,1.01172 0.22656,0.23828 0.375,0.50781 0.45312,0.8125 0.0781,0.30078 0.12891,0.85156 0.15625,1.65234 z m 13.51172,-7.85937 c -1.39453,-0.23829 -3.79297,-0.35547 -7.1875,-0.35547 -3.85156,0 -6.6875,0.21093 -8.51562,0.63281 -2.13672,0.49219 -3.60938,1.54687 -4.41797,3.17578 -0.39453,0.79297 -0.66797,1.67188 -0.80469,2.64453 -0.14062,0.97656 -0.20703,2.4375 -0.20703,4.375 0,2.58203 0.17969,4.5 0.54687,5.74219 0.36329,1.23828 1.03516,2.23437 2.01954,2.98047 0.92968,0.69922 2.18359,1.19531 3.76953,1.48047 1.58593,0.28906 3.85937,0.4375 6.83203,0.4375 3.58984,0 6.28906,-0.16797 8.08203,-0.5 1.80078,-0.33203 3.19141,-0.92188 4.17187,-1.77735 1.14063,-0.97265 1.81641,-2.5625 2.02344,-4.78125 h -7.60547 c -0.0976,0.61719 -0.27343,1.05078 -0.52343,1.30469 -0.3086,0.30859 -0.89063,0.52734 -1.73829,0.66406 -0.84765,0.13282 -2.1289,0.20313 -3.82421,0.20313 -2.66797,0 -4.37891,-0.28516 -5.13672,-0.84375 -0.39844,-0.29688 -0.66016,-0.67188 -0.79297,-1.11719 -0.13672,-0.44922 -0.20313,-1.19531 -0.20313,-2.23828 h 19.95703 c 0.0234,-1.05078 0.0352,-1.73828 0.0352,-2.05859 0,-3.3711 -0.45703,-5.76954 -1.39062,-7.19532 -0.92579,-1.42578 -2.625,-2.35156 -5.08985,-2.77343"
     id="path54" />
  <path
     style="fill:#f09419;fill-opacity:1;fill-rule:nonzero;stroke:none"
     d="m 3.691406,280.5067 c 0,0 87.808594,-112.57813 239.433594,-188.937498 140.96094,-70.98829 268.15234,-109.03125 297.32812,-83.7265701 12.0625,10.4609401 11.4336,27.9765701 7.88672,40.4921901 -8.46484,29.89844 -44.72265,54.566408 -44.72265,54.566408 0,0 46.1875,-52.539068 6.65625,-65.218748 C 470.23828,24.842632 354.375,62.057482 292.56641,91.116072 230.75781,120.17466 121.76562,167.96373 3.691406,280.5067"
     id="path56" />
</svg>
