<?xml version="1.0" encoding="UTF-8" standalone="no"?>
<svg
   width="598.22266pt"
   height="258.89844pt"
   viewBox="0 0 598.22266 258.89844"
   version="1.1"
   id="svg57"
   sodipodi:docname="EPOS_LOGO_MIT URL_WEB_VECTOR.svg"
   inkscape:version="1.1.1 (3bf5ae0d25, 2021-09-20)"
   xmlns:inkscape="http://www.inkscape.org/namespaces/inkscape"
   xmlns:sodipodi="http://sodipodi.sourceforge.net/DTD/sodipodi-0.dtd"
   xmlns="http://www.w3.org/2000/svg"
   xmlns:svg="http://www.w3.org/2000/svg">
  <defs
     id="defs61" />
  <sodipodi:namedview
     id="namedview59"
     pagecolor="#ffffff"
     bordercolor="#666666"
     borderopacity="1.0"
     inkscape:pageshadow="2"
     inkscape:pageopacity="0.0"
     inkscape:pagecheckerboard="0"
     inkscape:document-units="pt"
     showgrid="false"
     fit-margin-top="0"
     fit-margin-left="0"
     fit-margin-right="0"
     fit-margin-bottom="0"
     inkscape:zoom="1.5134565"
     inkscape:cx="397.43462"
     inkscape:cy="172.7833"
     inkscape:window-width="2560"
     inkscape:window-height="1351"
     inkscape:window-x="-9"
     inkscape:window-y="-9"
     inkscape:window-maximized="1"
     inkscape:current-layer="svg57" />
  <g
     id="surface1"
     transform="translate(-34.011719,-27.781242)">
    <path
       style="fill:#262628;fill-opacity:1;fill-rule:nonzero;stroke:none"
       d="m 271.66406,218.17969 h 7.875 c 0.0547,1.26172 0.0859,2.07031 0.0859,2.4375 0,1.99218 -0.30078,3.54687 -0.89453,4.66797 -0.65625,1.25781 -1.9336,2.11328 -3.83985,2.57031 -1.91015,0.45312 -5.20312,0.67969 -9.88671,0.67969 -4.92969,0 -8.4375,-0.0977 -10.52735,-0.28516 -2.08594,-0.1875 -3.66406,-0.55469 -4.72656,-1.09766 -0.94531,-0.49218 -1.65234,-1.15625 -2.12109,-1.98828 -0.46485,-0.83594 -0.76954,-1.97656 -0.91016,-3.42969 -0.11328,-1.17187 -0.16797,-3.28906 -0.16797,-6.35937 0,-2.99219 0.0547,-5.14844 0.16797,-6.47656 0.11719,-1.32422 0.33594,-2.35157 0.66406,-3.08203 0.72266,-1.64063 2.17969,-2.70704 4.37891,-3.19141 2.19922,-0.48438 6.63281,-0.73047 13.30078,-0.73047 3.33203,0 5.75781,0.0781 7.27734,0.23047 1.51172,0.15234 2.72266,0.43359 3.61719,0.85156 1.17578,0.55469 2,1.375 2.48047,2.46875 0.48047,1.09375 0.72266,2.69922 0.72266,4.81641 0,0.11719 -0.0156,0.54297 -0.0391,1.28906 h -7.875 c -0.0391,-0.85156 -0.0898,-1.42578 -0.16015,-1.71094 -0.0703,-0.28906 -0.21094,-0.52734 -0.42578,-0.71875 -0.3086,-0.26172 -1.06641,-0.44922 -2.29297,-0.57031 -1.22657,-0.11719 -3.08203,-0.17969 -5.57032,-0.17969 -2.46484,0 -4.17187,0.0547 -5.11718,0.16016 -0.94532,0.10937 -1.61719,0.32031 -2.00782,0.63281 -0.46875,0.37891 -0.79296,1.01563 -0.97656,1.91016 -0.18359,0.89453 -0.27344,2.32031 -0.27344,4.26953 0,1.95312 0.082,3.33594 0.2461,4.13281 0.16406,0.80078 0.48047,1.37891 0.94531,1.73047 0.44531,0.33984 1.14844,0.56641 2.11328,0.67969 0.96485,0.11328 2.67969,0.17187 5.12891,0.17187 3.01562,0 5.02734,-0.0508 6.03125,-0.15234 1.00781,-0.0977 1.68359,-0.32031 2.03515,-0.66016 0.46875,-0.4375 0.71485,-1.46093 0.74219,-3.0664"
       id="path2" />
    <path
       style="fill:#262628;fill-opacity:1;fill-rule:nonzero;stroke:none"
       d="m 327.05469,228.14453 -2.21485,-4.37891 h -17.09375 l -2.21484,4.37891 h -8.99219 l 13.70313,-25.85937 h 12.23047 l 13.52343,25.85937 z m -4.97657,-10.03906 -4.98046,-9.8125 h -1.57032 l -4.98047,9.8125 z m 0,0"
       id="path4" />
    <path
       style="fill:#262628;fill-opacity:1;fill-rule:nonzero;stroke:none"
       d="m 349.40234,202.28516 h 31.28907 v 6.58984 h -11.51563 v 19.26953 h -8.25781 V 208.875 h -11.51563 z m 0,0"
       id="path6" />
    <path
       style="fill:#262628;fill-opacity:1;fill-rule:nonzero;stroke:none"
       d="m 441.30078,213.48828 h 18.00391 c 0.0156,0.41797 0.0234,0.65234 0.0234,0.70313 0,3.64843 -0.0937,6.39843 -0.28125,8.24218 -0.30468,2.98047 -1.99218,4.78516 -5.07031,5.41797 -1.32422,0.26563 -2.83984,0.44531 -4.54687,0.53906 -1.71094,0.0937 -4.32032,0.14454 -7.82032,0.14454 -4.4414,0 -7.58203,-0.1211 -9.42187,-0.36329 -1.83984,-0.23828 -3.29688,-0.71875 -4.37109,-1.4375 -0.73047,-0.49218 -1.28907,-1.12109 -1.67969,-1.89453 -0.39453,-0.76953 -0.66406,-1.78515 -0.81641,-3.04297 -0.14844,-1.17578 -0.22656,-3.5 -0.22656,-6.96875 0,-2.35937 0.0625,-4.14062 0.1875,-5.33984 0.12891,-1.19922 0.375,-2.27344 0.74219,-3.21484 0.74218,-1.9961 2.32422,-3.21094 4.74609,-3.64063 2.64844,-0.46484 6.71875,-0.69531 12.20703,-0.69531 3.25391,0 5.82813,0.082 7.71875,0.24219 1.89453,0.16406 3.44922,0.4375 4.67578,0.8125 1.98047,0.61718 3.17969,1.94922 3.59375,4.0039 0.20313,1.01563 0.3086,2.41797 0.32032,4.20313 h -7.875 c -0.0117,-0.71485 -0.0547,-1.20313 -0.13282,-1.45703 -0.0742,-0.25391 -0.23047,-0.46875 -0.47265,-0.64063 -0.44141,-0.3125 -1.36328,-0.50781 -2.76172,-0.57812 -1.32422,-0.0742 -3.24219,-0.11328 -5.75,-0.11328 -2.72656,0 -4.67188,0.0625 -5.83985,0.1875 -1.16406,0.1289 -1.96093,0.35937 -2.39062,0.69921 -0.42969,0.35157 -0.72266,0.92579 -0.87109,1.72657 -0.15235,0.79687 -0.22657,2.16406 -0.22657,4.10156 0,2.17578 0.0742,3.69141 0.22657,4.55078 0.14843,0.86328 0.4414,1.47266 0.86718,1.82422 0.42969,0.33594 0.98828,0.54297 1.67578,0.61328 0.6836,0.0664 2.85547,0.12891 6.50782,0.17969 3.57812,-0.0273 5.75,-0.0625 6.51953,-0.10547 0.76953,-0.043 1.38672,-0.16016 1.85156,-0.35156 0.37891,-0.16407 0.64844,-0.42969 0.80078,-0.80078 0.16016,-0.3711 0.23828,-0.92969 0.23828,-1.67188 0,-0.11328 0,-0.35156 0.004,-0.71875 h -10.35547 z m 0,0"
       id="path8" />
    <path
       style="fill:#262628;fill-opacity:1;fill-rule:nonzero;stroke:none"
       d="m 478.80859,209.80469 h 6.4375 v 2.7539 h 0.36328 c 0.98438,-2.14453 3.46485,-3.21875 7.4375,-3.21875 2.20704,0 3.96094,0.30078 5.26172,0.90235 1.29688,0.59765 2.32032,1.57812 3.06641,2.9414 0.55469,-1.36328 1.44922,-2.34375 2.67969,-2.9414 1.23047,-0.60157 2.98047,-0.90235 5.23828,-0.90235 1.89844,0 3.44531,0.1875 4.65234,0.5625 1.20703,0.36719 2.19922,0.97266 2.98047,1.80469 0.78125,0.82031 1.30078,1.74219 1.55469,2.76953 0.2539,1.03125 0.3789,2.73047 0.3789,5.10156 v 8.56641 h -6.86328 v -8.56641 c 0,-1.33984 -0.0469,-2.27734 -0.15234,-2.80468 -0.10156,-0.53125 -0.30469,-0.95313 -0.62109,-1.27344 -0.67188,-0.66797 -1.95704,-1 -3.86329,-1 -2.00781,0 -3.36328,0.38281 -4.07031,1.15625 -0.39062,0.42578 -0.66015,0.98437 -0.80469,1.66797 -0.14453,0.67969 -0.21875,1.76562 -0.21875,3.2539 v 7.56641 h -6.86328 v -8.56641 c 0,-1.42968 -0.0391,-2.3789 -0.12109,-2.85546 -0.082,-0.47266 -0.28125,-0.875 -0.59766,-1.20313 -0.6289,-0.67969 -1.89453,-1.01953 -3.79687,-1.01953 -2.05469,0 -3.45313,0.37109 -4.19531,1.11719 -0.39063,0.40234 -0.66016,0.95312 -0.80469,1.64453 -0.14453,0.69922 -0.21485,1.80078 -0.21485,3.3164 v 7.56641 h -6.86328 z m 0,0"
       id="path10" />
    <path
       style="fill:#262628;fill-opacity:1;fill-rule:nonzero;stroke:none"
       d="m 538.47266,202.28516 h 6.86328 V 212.25 h 0.30468 c 0.69141,-1.14063 1.57422,-1.91797 2.64844,-2.33203 1.07031,-0.41016 2.75,-0.61328 5.03125,-0.61328 2.25781,0 4.07422,0.1289 5.44141,0.39453 1.37109,0.26562 2.44922,0.69922 3.24609,1.30859 0.89453,0.66797 1.50781,1.5625 1.83594,2.67188 0.32812,1.11328 0.49219,2.85547 0.49219,5.23047 0,1.53906 -0.0469,2.71875 -0.14453,3.53125 -0.0937,0.82031 -0.27344,1.57031 -0.53907,2.26562 -0.53125,1.44141 -1.54687,2.44922 -3.0664,3.03125 -1.51172,0.58203 -3.86719,0.87109 -7.07422,0.87109 -3.20313,0 -5.41406,-0.36328 -6.6211,-1.09375 -0.54687,-0.32812 -1.07031,-0.91796 -1.57421,-1.77343 h -0.36719 v 2.40234 h -6.47656 z m 12.96875,12.17187 c -2.35547,0 -3.9375,0.21875 -4.7461,0.64844 -0.51172,0.28125 -0.87109,0.70312 -1.0664,1.27344 -0.19532,0.57031 -0.29297,1.46093 -0.29297,2.66406 0,1.29297 0.11328,2.20703 0.35156,2.74609 0.23047,0.53906 0.68359,0.92188 1.35156,1.15235 0.92969,0.33984 2.4375,0.51171 4.51563,0.51171 2.40625,0 4.00781,-0.2539 4.80078,-0.75781 0.41797,-0.26953 0.70703,-0.6914 0.87109,-1.27734 0.16406,-0.58203 0.24219,-1.45703 0.24219,-2.625 0,-1.21485 -0.10938,-2.08985 -0.32813,-2.6211 -0.21875,-0.53125 -0.63281,-0.91796 -1.23828,-1.16015 -0.90625,-0.3711 -2.39453,-0.55469 -4.46093,-0.55469"
       id="path12" />
    <path
       style="fill:#262628;fill-opacity:1;fill-rule:nonzero;stroke:none"
       d="m 583.88281,202.28516 h 8.25781 v 9.26562 h 17.80079 v -9.26562 h 8.25781 v 25.85937 h -8.25781 v -9.34375 h -17.80079 v 9.34375 h -8.25781 z m 0,0"
       id="path14" />
    <path
       style="fill:#262628;fill-opacity:1;fill-rule:nonzero;stroke:none"
       d="m 126.22656,158.05469 h 35.35547 c -0.98047,10.27343 -4.11328,17.65625 -9.39844,22.14843 -4.5664,3.96485 -11.03125,6.71094 -19.38672,8.24219 -8.35546,1.53125 -20.88671,2.29297 -37.593745,2.29297 -13.773437,0 -24.34375,-0.66797 -31.71875,-2.00391 -7.378906,-1.33984 -13.21875,-3.63671 -17.527344,-6.89843 -4.566406,-3.45313 -7.699219,-8.06641 -9.398437,-13.83594 -1.695313,-5.76953 -2.546875,-14.65625 -2.546875,-26.65234 0,-9 0.328125,-15.76172 0.980469,-20.29688 0.652343,-4.53125 1.894531,-8.62109 3.71875,-12.27344 3.789062,-7.5625 10.640624,-12.488278 20.5625,-14.769528 8.484374,-1.957031 21.667968,-2.933593 39.550781,-2.933593 15.796871,0 26.921871,0.554687 33.386721,1.664062 11.48437,1.957031 19.38281,6.25 23.6914,12.871099 4.3086,6.625 6.46094,17.76953 6.46094,33.42578 0,1.5 -0.0625,4.69921 -0.19531,9.59375 H 69.433594 c 0,4.82031 0.308594,8.27343 0.929687,10.35937 0.617188,2.08594 1.84375,3.8125 3.671875,5.17969 3.523438,2.60547 11.488282,3.91015 23.894532,3.91015 7.898442,0 13.820312,-0.30468 17.773442,-0.92187 3.94531,-0.61719 6.64062,-1.64063 8.07812,-3.06641 1.17578,-1.16797 1.98828,-3.17968 2.44531,-6.03515 m 0.49219,-28.87891 c -0.12891,-3.74219 -0.375,-6.3164 -0.73437,-7.73047 -0.35547,-1.40625 -1.0586,-2.67187 -2.10157,-3.78906 -3.07031,-3.14844 -11.26562,-4.72266 -24.582029,-4.72266 -11.945312,0 -19.847656,1.05079 -23.699219,3.15235 -3.851562,2.09765 -5.910156,6.46484 -6.167968,13.08984 z m 0,0"
       id="path16" />
    <path
       style="fill:#262628;fill-opacity:1;fill-rule:nonzero;stroke:none"
       d="M 187.76953,227.83594 V 93.480469 h 33.49219 V 106.3125 h 1.91015 c 3,-5.85937 7.58594,-9.863281 13.75391,-12.011719 6.16406,-2.152343 16.06641,-3.226562 29.70313,-3.226562 12.20312,0 21.76171,0.800781 28.67578,2.398437 6.91406,1.597656 12.39843,4.253906 16.44531,7.968754 3.78125,3.45703 6.35937,7.96875 7.73047,13.54687 1.37109,5.57422 2.05469,14.35938 2.05469,26.35547 0,8.02344 -0.3086,14.28516 -0.92969,18.78125 -0.6211,4.5 -1.71094,8.60937 -3.27735,12.32422 -2.9375,6.91406 -8.1914,11.6875 -15.75781,14.33203 -7.57031,2.63672 -19.74219,3.95703 -36.51172,3.95703 -12.07031,0 -20.91015,-1.02344 -26.52734,-3.07422 -5.60938,-2.04687 -10.14063,-5.90234 -13.60156,-11.5625 h -1.66407 v 51.73438 z m 68.15234,-110.08985 c -14.85937,0 -24.01953,1.5 -27.47265,4.50391 -3.45313,3.00391 -5.1836,9.56641 -5.1836,19.68359 0,5.41797 0.48829,9.51953 1.46875,12.29297 0.97266,2.77344 2.67188,4.84766 5.08204,6.21875 4.10546,2.41406 12.45312,3.625 25.03125,3.625 13.03906,0 21.51171,-1.30859 25.42187,-3.91797 2.21484,-1.5039 3.73047,-3.73828 4.54688,-6.70703 0.8125,-2.97265 1.22265,-7.625 1.22265,-13.95703 0,-5.8125 -0.48828,-9.99219 -1.46875,-12.53515 -0.97265,-2.54688 -2.83203,-4.53907 -5.57422,-5.97657 -4.03906,-2.08984 -11.73047,-3.16406 -23.07422,-3.23047"
       id="path18" />
    <path
       style="fill:#262628;fill-opacity:1;fill-rule:nonzero;stroke:none"
       d="m 411.57031,91.074219 c 16.10938,0 28.16797,0.636719 36.15625,1.90625 7.99219,1.273437 14.24219,3.539062 18.74219,6.796875 4.69531,3.390626 7.89453,7.828126 9.58984,13.300786 1.69532,5.47656 2.54297,14.15234 2.54297,26.02343 0,8.80078 -0.24219,15.40235 -0.73437,19.80469 -0.48828,4.39844 -1.38282,8.35937 -2.69141,11.87891 -3.39062,8.87109 -10.27344,14.50781 -20.64844,16.92187 -8.60937,2.01953 -22.89843,3.03125 -42.86328,3.03125 -17.67578,0 -30.33203,-0.63281 -37.96484,-1.90625 -7.63281,-1.26953 -13.73828,-3.79687 -18.30078,-7.58203 -4.3711,-3.58203 -7.29297,-8.28125 -8.76172,-14.08203 -1.46875,-5.80469 -2.20313,-15.58203 -2.20313,-29.33985 0,-7.82812 0.3086,-13.77343 0.92969,-17.85156 0.62109,-4.07422 1.80859,-7.80859 3.57422,-11.19922 3.58984,-6.91406 9.65234,-11.574215 18.20312,-13.984371 8.54297,-2.414063 23.35547,-3.652344 44.42969,-3.71875 m 0.28906,26.671871 c -11.71875,0 -19.625,0.91407 -23.72656,2.74219 -2.99219,1.3711 -5.10937,3.65625 -6.34375,6.85547 -1.23828,3.19922 -1.85547,7.93359 -1.85547,14.19922 0,6.20312 0.51953,10.64062 1.5625,13.3164 1.03907,2.67969 3.02735,4.70313 5.95313,6.07813 4.49609,2.08594 12.59765,3.13281 24.3125,3.13281 13.41406,0 21.98828,-1.40625 25.73047,-4.21484 3.74218,-2.80469 5.61328,-9.20313 5.61328,-19.19531 0,-6.26563 -0.58594,-10.83594 -1.75781,-13.71094 -1.17188,-2.87109 -3.28907,-4.96094 -6.34766,-6.26172 -4.48828,-1.96094 -12.20313,-2.94141 -23.14063,-2.94141"
       id="path20" />
    <path
       style="fill:#262628;fill-opacity:1;fill-rule:nonzero;stroke:none"
       d="m 501.25781,158.25391 h 36.13281 c 0.32422,4.0664 2.57813,6.85546 6.75782,8.36328 4.17968,1.51172 11.82031,2.26172 22.91797,2.26172 11.49218,0 19.30468,-0.6211 23.44921,-1.86329 4.14844,-1.24218 6.21875,-3.57031 6.21875,-6.97656 0,-3.27344 -1.98828,-5.46875 -5.96875,-6.58203 -1.83203,-0.52344 -11.91796,-0.88281 -30.26562,-1.08203 -17.12109,0 -27.67578,-0.29297 -31.66406,-0.87891 -11.10938,-1.5 -18.62891,-5.125 -22.54688,-10.86718 -2.9414,-4.3086 -4.41015,-10.1211 -4.41015,-17.4336 0,-13.97265 5.16015,-23.07812 15.48046,-27.324216 7.76954,-3.199219 24.46094,-4.796875 50.0625,-4.796875 16.13672,0 27.85938,0.601562 35.17579,1.8125 7.3164,1.207031 13,3.507812 17.04296,6.902343 2.48438,2.089848 4.26563,4.601568 5.34375,7.539068 1.07813,2.9375 1.84375,7.28125 2.30469,13.02343 h -36.13672 c -0.65625,-2.40234 -1.47265,-3.9414 -2.44922,-4.61328 -2.9375,-1.87109 -10.38281,-2.80469 -22.33203,-2.80469 -11.10156,0 -18.71093,0.55469 -22.82422,1.66407 -4.11718,1.10937 -6.17187,3.13672 -6.17187,6.07812 0,3.85156 2.84375,5.97656 8.52734,6.3711 4.44141,0.32421 20.57422,0.58593 48.40625,0.78125 13.33203,0.0664 22.96485,2.32031 28.91016,6.76171 6.01172,4.375 9.01562,11.98828 9.01562,22.83203 0,7.1875 -1.17578,13.01954 -3.52734,17.49219 -2.35156,4.47266 -6.04297,7.82422 -11.06641,10.04297 -8.36328,3.85547 -26.0625,5.78125 -53.09765,5.78125 -17.3086,0 -29.71875,-0.66406 -37.22656,-2 -7.51172,-1.33203 -13.42188,-3.94922 -17.73438,-7.85156 -5.35547,-4.81641 -8.12891,-12.35938 -8.32422,-22.63281"
       id="path22" />
    <path
       style="fill:#f09419;fill-opacity:1;fill-rule:nonzero;stroke:none"
       d="m 37.261719,274.74219 c 0,0 77.308591,-99.11719 210.800781,-166.34375 124.10156,-62.500002 236.08594,-95.99219 261.77344,-73.71094 10.62109,9.210938 10.0664,24.628906 6.94531,35.644531 -7.45313,26.328125 -39.375,48.039059 -39.375,48.039059 0,0 40.66797,-46.249996 5.85937,-57.414059 C 448.01562,49.652344 346.01172,82.417969 291.59375,108 237.17578,133.58203 141.21875,175.66016 37.261719,274.74219"
       id="path24" />
    <path
       style="fill:#262628;fill-opacity:1;fill-rule:nonzero;stroke:none"
       d="m 187.41406,261.0625 h 7.14844 l 4.14844,13.14453 4.79687,-13.14453 h 6.40625 l 4.89063,12.94141 4.21875,-12.94141 H 226.25 l -6.74219,18.09375 h -9.16797 l -3.5664,-10.64063 -3.63672,10.64063 h -9.01953 z m 0,0"
       id="path26" />
    <path
       style="fill:#262628;fill-opacity:1;fill-rule:nonzero;stroke:none"
       d="m 228.35156,261.0625 h 7.15235 l 4.14453,13.14453 4.79687,-13.14453 h 6.40625 l 4.89063,12.94141 4.21875,-12.94141 h 7.22656 l -6.73828,18.09375 h -9.16797 l -3.56641,-10.64063 -3.64062,10.64063 h -9.01953 z m 0,0"
       id="path28" />
    <path
       style="fill:#262628;fill-opacity:1;fill-rule:nonzero;stroke:none"
       d="m 269.28906,261.0625 h 7.15235 l 4.14453,13.14453 4.79687,-13.14453 h 6.40625 l 4.89063,12.94141 4.22265,-12.94141 h 7.22266 l -6.74219,18.09375 h -9.16406 l -3.56641,-10.64063 -3.64062,10.64063 h -9.01953 z m 0,0"
       id="path30" />
    <path
       style="fill:#262628;fill-opacity:1;fill-rule:nonzero;stroke:none"
       d="m 311.03125,272.37891 h 8.16016 v 6.77734 h -8.16016 z m 0,0"
       id="path32" />
    <path
       style="fill:#262628;fill-opacity:1;fill-rule:nonzero;stroke:none"
       d="m 342.83984,273.36719 h 6.73828 c -0.1875,1.96875 -0.78515,3.3789 -1.79296,4.23828 -0.8711,0.76172 -2.10547,1.28515 -3.69532,1.57812 -1.59375,0.29297 -3.98437,0.44141 -7.17187,0.44141 -2.625,0 -4.64063,-0.12891 -6.04688,-0.38672 -1.40625,-0.25391 -2.51953,-0.69141 -3.34375,-1.3125 -0.87109,-0.66016 -1.46875,-1.54297 -1.79297,-2.64453 -0.32421,-1.10156 -0.48437,-2.79688 -0.48437,-5.08594 0,-1.71875 0.0625,-3.01172 0.1875,-3.875 0.125,-0.86719 0.35937,-1.64453 0.70703,-2.34375 0.72266,-1.4414 2.03125,-2.38281 3.92188,-2.82031 1.61718,-0.375 4.13281,-0.55859 7.54687,-0.55859 3.00781,0 5.13281,0.10546 6.36328,0.3164 2.19141,0.3711 3.69922,1.19141 4.51953,2.45313 0.82032,1.26562 1.23047,3.39062 1.23047,6.3789 0,0.28516 -0.0117,0.89453 -0.0391,1.82813 h -17.67578 c 0,0.92187 0.0547,1.58203 0.17578,1.98047 0.11719,0.39843 0.35156,0.72656 0.69922,0.99218 0.67187,0.4961 2.1914,0.74219 4.55469,0.74219 1.50781,0 2.63671,-0.0586 3.39062,-0.17578 0.75391,-0.11719 1.26563,-0.3125 1.53906,-0.58984 0.22266,-0.22266 0.37891,-0.60938 0.46875,-1.15625 m 0.0899,-5.48828 c -0.0234,-0.71094 -0.0703,-1.19922 -0.13672,-1.46485 -0.0703,-0.26953 -0.20313,-0.50781 -0.40235,-0.72265 -0.58593,-0.59375 -2.14843,-0.89454 -4.6875,-0.89454 -2.27734,0 -3.78515,0.19922 -4.51562,0.59766 -0.73828,0.39844 -1.12891,1.22656 -1.17578,2.48438 z m 0,0"
       id="path34" />
    <path
       style="fill:#262628;fill-opacity:1;fill-rule:nonzero;stroke:none"
       d="M 355.13672,286.67969 V 261.0625 H 361.5 v 2.44922 h 0.375 c 0.57031,-1.1211 1.44531,-1.88672 2.62109,-2.29688 1.17969,-0.41015 3.06641,-0.61718 5.66797,-0.61718 2.32813,0 4.15235,0.14843 5.47266,0.45703 1.3164,0.30468 2.36719,0.8125 3.13672,1.51953 0.71875,0.66015 1.21484,1.52344 1.47265,2.58984 0.26563,1.0625 0.39453,2.73828 0.39453,5.02735 0,1.53125 -0.0586,2.72656 -0.17578,3.58593 -0.12109,0.85938 -0.32812,1.64453 -0.6289,2.35547 -0.5586,1.31641 -1.5625,2.23047 -3.00391,2.73438 -1.44531,0.5039 -3.76562,0.75781 -6.96875,0.75781 -2.30078,0 -3.98437,-0.19922 -5.05469,-0.58984 -1.07422,-0.39063 -1.9375,-1.12891 -2.59765,-2.21485 h -0.31641 v 9.85938 z m 12.99219,-20.98438 c -2.83594,0 -4.58594,0.28516 -5.24219,0.85938 -0.66406,0.57031 -0.99219,1.82031 -0.99219,3.75 0,1.03515 0.0937,1.8164 0.28125,2.34375 0.1875,0.53125 0.50781,0.92578 0.96875,1.1875 0.78516,0.46093 2.37891,0.6914 4.78125,0.6914 2.48828,0 4.10547,-0.25 4.85156,-0.75 0.42578,-0.28515 0.71485,-0.71093 0.8711,-1.27734 0.15625,-0.56641 0.23047,-1.45313 0.23047,-2.66016 0,-1.10937 -0.0899,-1.90625 -0.27735,-2.39062 -0.1875,-0.48438 -0.54297,-0.86328 -1.0664,-1.14063 -0.76954,-0.39843 -2.23829,-0.60156 -4.40625,-0.61328"
       id="path36" />
    <path
       style="fill:#262628;fill-opacity:1;fill-rule:nonzero;stroke:none"
       d="m 398.37109,260.59766 c 3.07422,0 5.3711,0.12109 6.89844,0.36328 1.52344,0.24218 2.71484,0.67578 3.57813,1.29687 0.89453,0.64844 1.5039,1.49219 1.82812,2.53906 0.32031,1.04688 0.48438,2.70313 0.48438,4.96875 0,1.67969 -0.0469,2.94141 -0.14063,3.78125 -0.0937,0.83985 -0.26562,1.59766 -0.51562,2.26954 -0.64454,1.6914 -1.95704,2.76562 -3.9375,3.22656 -1.64454,0.38672 -4.36719,0.58203 -8.17579,0.58203 -3.375,0 -5.78906,-0.12109 -7.24609,-0.36719 -1.45703,-0.24219 -2.62109,-0.72265 -3.49219,-1.44531 -0.83203,-0.68359 -1.39062,-1.58203 -1.67187,-2.69141 -0.27735,-1.10547 -0.41797,-2.97265 -0.41797,-5.59765 0,-1.4961 0.0586,-2.63282 0.17578,-3.41016 0.11719,-0.77734 0.34375,-1.48828 0.68359,-2.13672 0.6836,-1.32031 1.83985,-2.21094 3.47266,-2.66797 1.62891,-0.46093 4.45313,-0.69922 8.47656,-0.71093 m 0.0547,5.09765 c -2.23828,0 -3.75391,0.17578 -4.53516,0.52344 -0.57421,0.26172 -0.97656,0.69531 -1.21484,1.30469 -0.23437,0.60937 -0.35547,1.51172 -0.35547,2.70703 0,1.18359 0.0977,2.03125 0.30078,2.53906 0.19532,0.51172 0.57813,0.89844 1.13672,1.16016 0.85938,0.39453 2.40625,0.59765 4.64844,0.59765 2.56641,0 4.20312,-0.26953 4.92187,-0.80468 0.71485,-0.53516 1.07422,-1.75391 1.07422,-3.65625 0,-1.19922 -0.11328,-2.07032 -0.33593,-2.61719 -0.22657,-0.54688 -0.63282,-0.94531 -1.21485,-1.19531 -0.85937,-0.375 -2.33203,-0.5586 -4.42578,-0.5586"
       id="path38" />
    <path
       style="fill:#262628;fill-opacity:1;fill-rule:nonzero;stroke:none"
       d="m 416.00781,273.40625 h 6.88672 c 0.0625,0.76953 0.49219,1.30078 1.28906,1.58594 0.79688,0.28515 2.25391,0.42968 4.3711,0.42968 2.1875,0 3.67968,-0.11718 4.47265,-0.35546 0.78907,-0.23438 1.1836,-0.67969 1.1836,-1.32422 0,-0.6211 -0.37891,-1.03907 -1.13672,-1.25391 -0.35156,-0.0977 -2.27344,-0.16797 -5.76953,-0.20312 -3.26172,0 -5.27344,-0.0547 -6.03125,-0.16797 -2.11719,-0.28516 -3.55078,-0.97657 -4.29688,-2.07422 -0.55859,-0.82031 -0.83984,-1.92969 -0.83984,-3.32422 0,-2.66406 0.98437,-4.39844 2.95312,-5.20703 1.48047,-0.60938 4.66016,-0.91406 9.53907,-0.91406 3.07421,0 5.30859,0.11328 6.70312,0.34375 1.39453,0.23046 2.47656,0.67187 3.25,1.3164 0.47266,0.39844 0.8125,0.87891 1.01563,1.4375 0.20703,0.5625 0.35156,1.39063 0.4414,2.48438 h -6.89062 c -0.125,-0.44922 -0.28125,-0.73438 -0.46875,-0.85938 -0.5586,-0.34765 -1.97657,-0.52344 -4.25391,-0.52344 -2.12109,0 -3.56641,0.10547 -4.35547,0.31641 -0.78125,0.21484 -1.17578,0.59766 -1.17578,1.16016 0,0.73437 0.54297,1.13672 1.625,1.21093 0.84766,0.0664 3.92188,0.11329 9.22656,0.15235 2.53907,0.0117 4.375,0.4414 5.50782,1.28906 1.14453,0.83203 1.71484,2.28125 1.71484,4.34766 0,1.37109 -0.22266,2.48047 -0.67188,3.33203 -0.44531,0.85547 -1.15234,1.49219 -2.10937,1.91406 -1.59375,0.73828 -4.96484,1.10547 -10.11719,1.10547 -3.30078,0 -5.66406,-0.12891 -7.09765,-0.38672 -1.42969,-0.25391 -2.5586,-0.75391 -3.37891,-1.5 -1.02344,-0.92187 -1.55078,-2.36719 -1.58594,-4.33203"
       id="path40" />
    <path
       style="fill:#262628;fill-opacity:1;fill-rule:nonzero;stroke:none"
       d="m 444.86328,267.39453 h 16.07813 v 5.16797 h -16.13282 z m 0,0"
       id="path42" />
    <path
       style="fill:#262628;fill-opacity:1;fill-rule:nonzero;stroke:none"
       d="m 482.70312,271.89062 h 6.89063 c -0.0625,1.50782 -0.21484,2.65625 -0.45703,3.44922 -0.24219,0.78907 -0.65625,1.48047 -1.24219,2.07813 -0.87109,0.88672 -2.03906,1.47265 -3.50781,1.76562 -1.47266,0.29297 -3.98047,0.44141 -7.52735,0.44141 -2.78906,0 -4.875,-0.12109 -6.26562,-0.35547 -1.38281,-0.23828 -2.53516,-0.67578 -3.44141,-1.30859 -0.875,-0.6211 -1.47656,-1.50782 -1.8125,-2.66016 -0.33593,-1.15234 -0.5039,-2.92187 -0.5039,-5.3125 0,-2.17969 0.15625,-3.82031 0.46875,-4.92969 0.30859,-1.10547 0.85937,-1.98437 1.66015,-2.63281 0.8711,-0.69531 2.02735,-1.17578 3.47266,-1.4375 1.44141,-0.26172 3.69531,-0.39062 6.75781,-0.39062 3,0 5.26172,0.13671 6.78906,0.41015 1.52344,0.27344 2.71485,0.75391 3.57422,1.4375 0.72266,0.58594 1.23047,1.30469 1.51953,2.15625 0.29297,0.85156 0.47266,2.125 0.53516,3.82031 h -6.89062 c -0.11329,-1.03515 -0.57032,-1.75 -1.3711,-2.14062 -0.80469,-0.39063 -2.19531,-0.58984 -4.17187,-0.58984 -2.00391,0 -3.40625,0.1914 -4.20313,0.5625 -0.5,0.25 -0.85547,0.67578 -1.0664,1.27734 -0.21094,0.60547 -0.31641,1.5 -0.31641,2.67969 0,1.16015 0.10937,2.01172 0.33594,2.55859 0.22265,0.54688 0.62109,0.94531 1.19531,1.19531 0.84766,0.375 2.23047,0.5586 4.14453,0.5586 1.99219,0 3.35938,-0.17969 4.10156,-0.53907 0.73828,-0.35937 1.1836,-1.05859 1.33203,-2.09375"
       id="path44" />
    <path
       style="fill:#262628;fill-opacity:1;fill-rule:nonzero;stroke:none"
       d="m 501.83594,266.73828 h -6.74219 c 0.0898,-1.40625 0.38672,-2.46875 0.89844,-3.19141 0.80859,-1.15625 2.0625,-1.9414 3.76172,-2.35156 1.69921,-0.41015 4.57031,-0.61719 8.61718,-0.61719 2.97266,0 5.00391,0.11329 6.08594,0.33594 1.08203,0.22266 2.00391,0.71875 2.76172,1.47656 0.59766,0.59766 1.00391,1.3125 1.22656,2.15235 0.21485,0.84375 0.32422,2.08594 0.32422,3.72656 v 10.88672 h -6.49609 v -2.46484 h -0.31641 c -0.5,1.04687 -1.28906,1.80468 -2.37109,2.27734 -0.57422,0.25 -1.37891,0.42187 -2.41016,0.51172 -1.03516,0.0937 -2.67578,0.14453 -4.92969,0.14453 -1.8164,0 -3.21875,-0.11719 -4.20312,-0.34766 -0.98047,-0.23047 -1.77344,-0.625 -2.3711,-1.18359 -0.87109,-0.83594 -1.30468,-2.19922 -1.30468,-4.08984 0,-2.10547 0.51562,-3.625 1.54687,-4.5586 0.82422,-0.73047 1.90625,-1.21094 3.25,-1.4375 1.34375,-0.22265 3.82422,-0.33203 7.42969,-0.33203 1.55859,0 2.66797,0.0898 3.33594,0.26953 0.66406,0.17969 1.25781,0.5625 1.78125,1.14844 h 0.30078 v -0.95313 c 0,-1.41796 -0.26172,-2.30859 -0.78516,-2.67187 -0.52344,-0.35938 -1.8125,-0.53906 -3.86719,-0.53906 -2.42578,0 -3.92578,0.0898 -4.49609,0.27734 -0.57422,0.1875 -0.91406,0.69922 -1.02734,1.53125 m 4.51562,4.78125 c -2.27734,0 -3.6875,0.13672 -4.23828,0.41016 -0.66016,0.32422 -0.98828,0.8164 -0.98828,1.47656 0,0.73437 0.32422,1.23047 0.97266,1.49219 0.64453,0.26172 1.8789,0.39453 3.69531,0.39453 2.36719,0 3.97265,-0.14453 4.8164,-0.4336 0.84766,-0.28515 1.27344,-0.82421 1.27344,-1.62109 0,-0.72266 -0.37109,-1.21875 -1.10547,-1.49609 -0.33593,-0.125 -1.80859,-0.19532 -4.42578,-0.22266"
       id="path46" />
    <path
       style="fill:#262628;fill-opacity:1;fill-rule:nonzero;stroke:none"
       d="m 526.60547,256.89844 h 6.75781 v 4.16406 h 10.69922 v 4.83594 h -10.69922 v 5.26562 c 0,1.41797 0.10156,2.3086 0.30078,2.66797 0.33594,0.625 1.12891,0.9375 2.39063,0.9375 1.30468,0 2.11328,-0.30078 2.42578,-0.89844 0.125,-0.23437 0.19922,-0.46875 0.22265,-0.69922 0.0273,-0.23046 0.0391,-0.8164 0.0391,-1.76562 h 6.17968 c -0.0234,1.73437 -0.1289,2.98437 -0.30859,3.75391 -0.17969,0.77343 -0.53125,1.48828 -1.05469,2.14843 -0.67187,0.85547 -1.60156,1.45703 -2.79297,1.80078 -1.1875,0.34375 -2.94921,0.51563 -5.28906,0.51563 -2.16797,0 -3.77734,-0.12109 -4.82812,-0.35547 -1.05078,-0.23828 -1.90625,-0.67969 -2.56641,-1.32812 -0.48828,-0.47266 -0.83594,-0.98829 -1.04687,-1.54688 -0.21094,-0.5625 -0.34375,-1.33203 -0.39063,-2.31641 -0.0273,-0.35937 -0.0391,-1.33203 -0.0391,-2.91406 v -5.26562 h -3.56641 v -4.83594 h 3.56641 z m 0,0"
       id="path48" />
    <path
       style="fill:#262628;fill-opacity:1;fill-rule:nonzero;stroke:none"
       d="m 550.21875,272.37891 h 8.16016 v 6.77734 h -8.16016 z m 0,0"
       id="path50" />
    <path
       style="fill:#262628;fill-opacity:1;fill-rule:nonzero;stroke:none"
       d="m 589.90234,253.66797 v 25.48828 h -6.36328 v -2.37109 h -0.375 c -0.47265,0.82031 -0.99609,1.40234 -1.57031,1.73437 -1.24219,0.73438 -3.38281,1.10156 -6.42188,1.10156 -2.4414,0 -4.32031,-0.14062 -5.63671,-0.42968 -1.32032,-0.28516 -2.36719,-0.78125 -3.14063,-1.49219 -0.74609,-0.67188 -1.25781,-1.5625 -1.53906,-2.67188 -0.27735,-1.10547 -0.41797,-2.78125 -0.41797,-5.01953 0,-1.55469 0.0781,-2.80859 0.23437,-3.7539 0.15235,-0.94532 0.41797,-1.77735 0.79297,-2.50391 0.70703,-1.34375 1.95313,-2.23047 3.73438,-2.66797 1.30469,-0.32422 3.32031,-0.48437 6.04687,-0.48437 2.37891,0 4.08203,0.19531 5.10547,0.58593 1.02735,0.39453 1.86719,1.16407 2.51172,2.3086 h 0.28125 v -9.82422 z m -12.45312,12.02344 c -2.66406,0 -4.3711,0.25781 -5.125,0.76953 -0.75,0.50781 -1.12891,1.66015 -1.12891,3.45312 0,1.35938 0.10938,2.32422 0.33594,2.90235 0.22266,0.57812 0.64062,0.98828 1.25,1.22265 0.80859,0.32422 2.23047,0.48828 4.25781,0.48828 2.51563,0 4.1875,-0.26172 5.02344,-0.78515 0.41016,-0.25 0.69922,-0.64844 0.86719,-1.19532 0.16797,-0.55078 0.2539,-1.35156 0.2539,-2.40625 0,-1.23437 -0.11328,-2.13671 -0.33593,-2.71093 -0.22657,-0.57032 -0.625,-0.97657 -1.19532,-1.21485 -0.82031,-0.34765 -2.22265,-0.52343 -4.20312,-0.52343"
       id="path52" />
    <path
       style="fill:#262628;fill-opacity:1;fill-rule:nonzero;stroke:none"
       d="m 612.91797,273.36719 h 6.74219 c -0.1875,1.96875 -0.78516,3.3789 -1.79297,4.23828 -0.8711,0.76172 -2.10547,1.28515 -3.69922,1.57812 -1.59375,0.29297 -3.98047,0.44141 -7.16797,0.44141 -2.62891,0 -4.64453,-0.12891 -6.05078,-0.38672 -1.40625,-0.25391 -2.51953,-0.69141 -3.33985,-1.3125 -0.875,-0.66016 -1.47265,-1.54297 -1.79296,-2.64453 -0.32422,-1.10156 -0.48829,-2.79688 -0.48829,-5.08594 0,-1.71875 0.0625,-3.01172 0.19141,-3.875 0.12109,-0.86719 0.35547,-1.64453 0.70703,-2.34375 0.72266,-1.4414 2.02735,-2.38281 3.92188,-2.82031 1.61718,-0.375 4.1289,-0.55859 7.54297,-0.55859 3.00781,0 5.13281,0.10546 6.36718,0.3164 2.1875,0.3711 3.69532,1.19141 4.51563,2.45313 0.82422,1.26562 1.23437,3.39062 1.23437,6.3789 0,0.28516 -0.0156,0.89453 -0.0391,1.82813 H 602.0898 c 0,0.92187 0.0586,1.58203 0.17578,1.98047 0.11719,0.39843 0.35157,0.72656 0.70313,0.99218 0.66797,0.4961 2.1875,0.74219 4.55469,0.74219 1.5039,0 2.63672,-0.0586 3.38672,-0.17578 0.7539,-0.11719 1.26953,-0.3125 1.54296,-0.58984 0.22266,-0.22266 0.37891,-0.60938 0.46485,-1.15625 m 0.0937,-5.48828 c -0.0234,-0.71094 -0.0703,-1.19922 -0.14063,-1.46485 -0.0664,-0.26953 -0.20312,-0.50781 -0.39843,-0.72265 -0.58594,-0.59375 -2.14844,-0.89454 -4.6875,-0.89454 -2.28125,0 -3.78516,0.19922 -4.51954,0.59766 -0.73437,0.39844 -1.1289,1.22656 -1.17578,2.48438 z m 0,0"
       id="path54" />
  </g>
</svg>
