<?xml version="1.0" encoding="UTF-8"?>
<svg width="307.73" height="95.04" version="1.1" viewBox="0 0 307.73 95.04" xmlns="http://www.w3.org/2000/svg" xmlns:cc="http://creativecommons.org/ns#" xmlns:dc="http://purl.org/dc/elements/1.1/" xmlns:rdf="http://www.w3.org/1999/02/22-rdf-syntax-ns#">
 <metadata>
  <rdf:RDF>
   <cc:Work rdf:about="">
    <dc:format>image/svg+xml</dc:format>
    <dc:type rdf:resource="http://purl.org/dc/dcmitype/StillImage"/>
    <dc:title/>
   </cc:Work>
  </rdf:RDF>
 </metadata>
 <defs>
  <style>.cls-1{isolation:isolate;}.cls-2{fill:#edf4ea;}.cls-3,.cls-5{fill:#12230f;}.cls-4{fill:#fff;}.cls-5{mix-blend-mode:darken;opacity:0.7;}</style>
 </defs>
 <path class="cls-3" d="m60.94 70.51a27 27 0 0 1 7.29 16.06 41.94 41.94 0 0 1-23.51 8.47h-1.87a42 42 0 0 1-25.79-8.82c-0.9-0.7-1.77-1.43-2.61-2.21a26.29 26.29 0 0 1 1.1-4.05 27.26 27.26 0 0 1 8.26-11.78 27 27 0 0 1 3-2.16 24.59 24.59 0 0 1 3.25-1.72 25.58 25.58 0 0 1 4.56-1.57c0-0.34 0-0.68-0.06-1-0.13-1.87-0.32-3.71-0.59-5.53-0.24-1.69-0.54-3.36-0.89-5-0.12-0.57-0.25-1.13-0.39-1.69a72.6 72.6 0 0 0-2.48-8.2c-0.61-1.64-1.27-3.26-2-4.84-0.14-0.32-0.29-0.63-0.45-1-0.37 0.31-0.74 0.64-1.09 1s-1 1-1.43 1.47a24.26 24.26 0 0 0-3.24 4.64 24.13 24.13 0 0 0-2.5 15.47c0.06 0.42 0.15 0.84 0.25 1.25-0.26-0.38-0.51-0.78-0.74-1.18a22.8 22.8 0 0 1-1.72-19.34 26 26 0 0 0-15.3 23.77v0.64a42.17 42.17 0 0 1-1.25-10.24c0-0.89 0-1.77 0.08-2.64a41.88 41.88 0 0 1 7.66-21.69 26.87 26.87 0 0 0-3.83-0.27 26.37 26.37 0 0 0-4.65 0.41 19.33 19.33 0 0 1 16.47-9.19h0.69a1.07 1.07 0 0 1 0.25 0 0.86 0.86 0 0 1 0.06-0.23q0.24-0.95 0.57-1.86a27 27 0 0 1 19.65-17.48 26.66 26.66 0 0 0-3.68 11.78 42.1 42.1 0 0 1 34.34 7.71 26.12 26.12 0 0 0-30.22 4.4h0.51a22.75 22.75 0 0 1 19.56 11.12 24 24 0 0 0-14.85-5.15 23.62 23.62 0 0 0-3.88 0.32 22.78 22.78 0 0 0-5.07 1.4c-0.57 0.22-1.13 0.47-1.67 0.74q1.57 2.11 3 4.35c0.25 0.38 0.49 0.77 0.72 1.16a72.83 72.83 0 0 1 7.13 15.48 71.72 71.72 0 0 1 2.32 9.07 26.54 26.54 0 0 1 6.81 2.16c0.48 0.21 0.94 0.45 1.4 0.7a26.52 26.52 0 0 1 4.91 3.4 24.6 24.6 0 0 1 1.92 1.87z" style="isolation:isolate"/>
 <path class="cls-4" d="m56.35 51.37a10.61 10.61 0 0 0 15.54 6.24 10.35 10.35 0 0 0 3.21-2.88 15 15 0 0 1-10-16.81 11 11 0 0 0-1.47 0.31 10.63 10.63 0 0 0-5.46 3.69 10.35 10.35 0 0 0-1 1.54 10.56 10.56 0 0 0-0.82 7.91z" style="isolation:isolate"/>
 <path class="cls-5" d="m56.35 51.37a10.61 10.61 0 0 0 15.54 6.24 10.35 10.35 0 0 0 3.21-2.88 15 15 0 0 1-10-16.81 11 11 0 0 0-1.47 0.31 10.63 10.63 0 0 0-5.46 3.69 10.35 10.35 0 0 0-1 1.54 10.56 10.56 0 0 0-0.82 7.91z" style="isolation:isolate"/>
 <path class="cls-3" d="m96.12 56.38h-4.15v-15c0-2.45 1.76-4.09 5.45-4.09 3.3 0 4.78 1.34 5.76 3.48l6.93 12a1.63 1.63 0 0 0 1.51 0.78c0.88 0 1.4-0.41 1.4-1v-14.92h4.19v15c0 2.48-1.8 4.12-5.45 4.12-3.3 0-4.82-1.34-5.8-3.48l-6.92-12a1.5 1.5 0 0 0-1.48-0.81c-1 0-1.44 0.42-1.44 1.08z" style="isolation:isolate"/>
 <path class="cls-3" d="m123.13 53.11v3.28h19.64v-3.28zm19.58-15.49h-19.58v3.29h19.58zm-0.29 7.87h-19.29v3h19.29z" style="isolation:isolate"/>
 <path class="cls-3" d="m153.07 37.63v12.53c0 1.86 1.2 3 3.94 3h6c2.67 0 3.9-1.09 3.9-3v-12.53h4.07v12.78c0 4-2.63 6-7.69 6h-6.77c-5.07 0-7.67-2-7.67-6v-12.78z" style="isolation:isolate"/>
 <path class="cls-3" d="m180.44 37.63v12.25c0 1.81 1.12 3.23 4.84 3.23h9.21v3.27h-9.45c-6.29 0-8.75-2.72-8.75-6.47v-12.28z" style="isolation:isolate"/>
 <path class="cls-3" d="m202.53 56.38h-4.57l8.33-16.67c0.88-1.75 2.49-2.42 5-2.42s4.07 0.67 4.92 2.42l8 16.67h-4.6l-7.21-15.09a1.14 1.14 0 0 0-1.16-0.63 1.22 1.22 0 0 0-1.19 0.63z" style="isolation:isolate"/>
 <path class="cls-3" d="m232.72 56.38h-4.14v-15c0-2.45 1.75-4.09 5.44-4.09 3.31 0 4.78 1.34 5.77 3.48l6.92 12a1.64 1.64 0 0 0 1.51 0.78c0.88 0 1.41-0.41 1.41-1v-14.92h4.18v15c0 2.48-1.79 4.12-5.45 4.12-3.3 0-4.81-1.34-5.8-3.48l-6.92-12a1.48 1.48 0 0 0-1.47-0.81c-0.95 0-1.45 0.42-1.45 1.08z" style="isolation:isolate"/>
 <path class="cls-3" d="m273.4 37.62h-11.93c-1.33 0-2 0.51-2 1.53v10.07h4.15v-8c0-0.25 0.14-0.33 0.46-0.33h9.29c4.6 0 6.53 1.8 6.53 6.08s-1.93 6.12-6.53 6.12h-13.9v1.74c0 1 0.64 1.54 2 1.54h11.93c7 0 10.68-3.06 10.68-9.37s-3.73-9.38-10.68-9.38z" style="isolation:isolate"/>
 <rect class="cls-4" x="288.09" y="53.11" width="19.64" height="3.28" style="isolation:isolate"/>
 <rect class="cls-5" x="288.09" y="53.11" width="19.64" height="3.28" style="isolation:isolate"/>
 <path class="cls-3" d="m91.97 63.4h0.84v8.38h-0.84z" style="isolation:isolate"/>
 <path class="cls-3" d="m94.83 65.49h0.84v1.19h0.08a2.38 2.38 0 0 1 0.81-1 2.28 2.28 0 0 1 1.36-0.4 2.35 2.35 0 0 1 1.35 0.37 2.32 2.32 0 0 1 0.83 1 3.48 3.48 0 0 1 0.27 1.39v3.74h-0.81v-3.66a2 2 0 0 0-0.54-1.53 2.07 2.07 0 0 0-2.81 0 2.08 2.08 0 0 0-0.54 1.49v3.7h-0.84z" style="isolation:isolate"/>
 <path class="cls-3" d="m104.03 74.12v-0.71a2.28 2.28 0 0 0 0.41 0.08 3.27 3.27 0 0 0 0.54 0 2 2 0 0 0 1.49-0.54 2.07 2.07 0 0 0 0.52-1.48v-1.24h-0.1a2.48 2.48 0 0 1-0.85 1 2.36 2.36 0 0 1-1.38 0.4 2.51 2.51 0 0 1-1.41-0.41 2.71 2.71 0 0 1-1-1.13 3.84 3.84 0 0 1-0.34-1.65 3.92 3.92 0 0 1 0.33-1.65 2.65 2.65 0 0 1 0.94-1.14 2.5 2.5 0 0 1 1.41-0.4 2.33 2.33 0 0 1 1.43 0.43 2.54 2.54 0 0 1 0.83 1.05h0.09v-1.27h0.82v6a3 3 0 0 1-0.29 1.32 2.4 2.4 0 0 1-0.9 1 2.82 2.82 0 0 1-1.57 0.41 3 3 0 0 1-0.97-0.07zm2-3.52a2.07 2.07 0 0 0 0.71-0.91 3.34 3.34 0 0 0 0.23-1.24 3.17 3.17 0 0 0-0.23-1.2 2.16 2.16 0 0 0-0.7-0.9 2.12 2.12 0 0 0-2.27 0 2.06 2.06 0 0 0-0.69 0.9 3 3 0 0 0-0.24 1.2 3.15 3.15 0 0 0 0.24 1.24 2 2 0 0 0 0.69 0.91 1.92 1.92 0 0 0 1.14 0.34 1.88 1.88 0 0 0 1.11-0.34z" style="isolation:isolate"/>
 <path class="cls-3" d="m110.81 71.41a3 3 0 0 1-1-1.22 4 4 0 0 1 0-3.19 2.89 2.89 0 0 1 1-1.22 3 3 0 0 1 3.22 0 2.89 2.89 0 0 1 1 1.22 3.9 3.9 0 0 1 0.33 1.59 4 4 0 0 1-0.33 1.6 3 3 0 0 1-1 1.22 3 3 0 0 1-3.22 0zm2.72-0.61a2.22 2.22 0 0 0 0.73-0.92 3.2 3.2 0 0 0 0.26-1.29 3.26 3.26 0 0 0-0.25-1.31 2.13 2.13 0 0 0-0.73-0.91 2 2 0 0 0-2.24 0 2.17 2.17 0 0 0-0.73 0.92 3.51 3.51 0 0 0 0 2.6 2.16 2.16 0 0 0 0.73 0.92 1.92 1.92 0 0 0 1.12 0.33 1.85 1.85 0 0 0 1.11-0.36z" style="isolation:isolate"/>
 <path class="cls-3" d="m117.5 71.65a1.05 1.05 0 0 1-0.41-0.57 3.94 3.94 0 0 1-0.09-0.93v-7.37h0.83v7.24a5.29 5.29 0 0 0 0 0.69 0.53 0.53 0 0 0 0.23 0.36 1 1 0 0 0 0.6 0.14h0.46v0.6a3.37 3.37 0 0 1-0.69 0.07 1.79 1.79 0 0 1-0.93-0.23z" style="isolation:isolate"/>
 <path class="cls-3" d="m121.41 71.57a2.22 2.22 0 0 1-0.85-0.78 2 2 0 0 1-0.29-1h0.84a1.31 1.31 0 0 0 0.18 0.66 1.43 1.43 0 0 0 0.56 0.53 1.81 1.81 0 0 0 0.9 0.21 1.78 1.78 0 0 0 1.06-0.31 1 1 0 0 0 0.42-0.86 0.9 0.9 0 0 0-0.32-0.72 1.57 1.57 0 0 0-0.8-0.33l-0.86-0.12a2.6 2.6 0 0 1-1.31-0.54 1.39 1.39 0 0 1-0.52-1.17 1.61 1.61 0 0 1 0.63-1.34 2.54 2.54 0 0 1 1.6-0.48 2.58 2.58 0 0 1 1.22 0.27 2 2 0 0 1 0.79 0.71 1.92 1.92 0 0 1 0.26 1h-0.84a1.18 1.18 0 0 0-0.14-0.55 1.2 1.2 0 0 0-0.47-0.51 1.49 1.49 0 0 0-0.85-0.22 1.58 1.58 0 0 0-1 0.32 1 1 0 0 0-0.4 0.83 0.88 0.88 0 0 0 0.29 0.67 1.24 1.24 0 0 0 0.72 0.33l0.95 0.13a3.16 3.16 0 0 1 1.35 0.53 1.42 1.42 0 0 1 0.55 1.21 1.66 1.66 0 0 1-0.31 1 2 2 0 0 1-0.83 0.67 2.84 2.84 0 0 1-1.19 0.23 2.79 2.79 0 0 1-1.34-0.37z" style="isolation:isolate"/>
 <path class="cls-3" d="m128.07 66.16v4a3.69 3.69 0 0 0 0 0.67 0.51 0.51 0 0 0 0.22 0.33 1.11 1.11 0 0 0 0.59 0.12 2.75 2.75 0 0 0 0.67-0.09v0.6a2.31 2.31 0 0 1-0.36 0.09 4.45 4.45 0 0 1-0.53 0 2 2 0 0 1-1-0.18 0.94 0.94 0 0 1-0.42-0.51 3 3 0 0 1-0.1-0.88v-4.13h-1.22v-0.67h1.22v-2.09h0.83v2.09h1.52v0.67z" style="isolation:isolate"/>
 <path class="cls-3" d="m132.08 71.44a2.76 2.76 0 0 1-0.92-1.17 4.57 4.57 0 0 1 0-3.36 2.67 2.67 0 0 1 0.93-1.18 2.54 2.54 0 0 1 1.49-0.43 2.22 2.22 0 0 1 1.38 0.41 2.81 2.81 0 0 1 0.82 1h0.09v-1.22h0.83v6.29h-0.83v-1.37h-0.09a2.92 2.92 0 0 1-0.85 1 2.24 2.24 0 0 1-1.4 0.41 2.44 2.44 0 0 1-1.45-0.38zm3.22-1a3.07 3.07 0 0 0 0.53-1.83 3 3 0 0 0-0.48-1.83 1.81 1.81 0 0 0-1.54-0.72 1.78 1.78 0 0 0-1.55 0.73 3.43 3.43 0 0 0 0 3.65 1.78 1.78 0 0 0 1.54 0.72 1.81 1.81 0 0 0 1.55-0.74z" style="isolation:isolate"/>
 <path class="cls-3" d="m139.48 71.44a2.7 2.7 0 0 1-0.93-1.17 4.57 4.57 0 0 1 0-3.36 2.63 2.63 0 0 1 0.94-1.18 2.49 2.49 0 0 1 1.48-0.43 2.2 2.2 0 0 1 1.38 0.41 3 3 0 0 1 0.83 1h0.08v-3.93h0.83v9h-0.83v-1.37h-0.08a2.85 2.85 0 0 1-0.86 1 2.21 2.21 0 0 1-1.39 0.41 2.44 2.44 0 0 1-1.45-0.38zm3.22-1a3 3 0 0 0 0.54-1.82 3 3 0 0 0-0.54-1.83 1.83 1.83 0 0 0-1.54-0.73 1.78 1.78 0 0 0-1.55 0.73 3 3 0 0 0-0.53 1.82 3.07 3.07 0 0 0 0.53 1.83 1.8 1.8 0 0 0 1.55 0.72 1.82 1.82 0 0 0 1.54-0.74z" style="isolation:isolate"/>
 <path class="cls-3" d="m147.4 66.16v4a3.69 3.69 0 0 0 0 0.67 0.51 0.51 0 0 0 0.22 0.33 1.11 1.11 0 0 0 0.59 0.12 2.75 2.75 0 0 0 0.67-0.09v0.6a2.31 2.31 0 0 1-0.36 0.09 4.41 4.41 0 0 1-0.52 0 2 2 0 0 1-1-0.18 0.94 0.94 0 0 1-0.42-0.51 3 3 0 0 1-0.1-0.88v-4.13h-1.13v-0.67h1.22v-2.09h0.83v2.09h1.52v0.67z" style="isolation:isolate"/>
 <path class="cls-3" d="m154.29 71.41a2.91 2.91 0 0 1-1-1.23 4.07 4.07 0 0 1-0.32-1.59 4.12 4.12 0 0 1 0.32-1.6 2.89 2.89 0 0 1 1-1.22 2.68 2.68 0 0 1 1.62-0.47 2.54 2.54 0 0 1 2 0.85 3.57 3.57 0 0 1 0.76 2.46v0.23h-4.87v0.08a2.34 2.34 0 0 0 0.26 1.1 2 2 0 0 0 1.83 1.15 1.94 1.94 0 0 0 1.15-0.35 2 2 0 0 0 0.72-0.93h0.81a2.9 2.9 0 0 1-0.93 1.42 2.6 2.6 0 0 1-1.74 0.56 2.74 2.74 0 0 1-1.61-0.46zm3.56-3.18a2.5 2.5 0 0 0-0.57-1.72 1.88 1.88 0 0 0-1.37-0.53 1.84 1.84 0 0 0-1.48 0.63 2.5 2.5 0 0 0-0.6 1.62z" style="isolation:isolate"/>
 <path class="cls-3" d="m160.45 71.69a0.63 0.63 0 0 1 0-0.86 0.59 0.59 0 0 1 0.44-0.18 0.6 0.6 0 0 1 0.44 0.18 0.63 0.63 0 0 1 0 0.86 0.6 0.6 0 0 1-0.44 0.18 0.59 0.59 0 0 1-0.44-0.18z" style="isolation:isolate"/>
 <path class="cls-3" d="m162.62 63.4h0.84l2.68 7.6h0.08l2.68-7.6h0.84l-3 8.4h-1.2z" style="isolation:isolate"/>
 <path class="cls-3" d="m171.05 71.69a0.6 0.6 0 0 1 0-0.86 0.57 0.57 0 0 1 0.43-0.18 0.57 0.57 0 0 1 0.44 0.18 0.6 0.6 0 0 1 0 0.86 0.57 0.57 0 0 1-0.44 0.18 0.57 0.57 0 0 1-0.43-0.18z" style="isolation:isolate"/>
</svg>
